<svg width="101" height="32" viewBox="0 0 101 32" fill="none" xmlns="http://www.w3.org/2000/svg">
<path d="M7.04469 22.617C6.85802 22.617 6.76469 22.417 6.76469 22.017C6.76469 21.7503 6.81802 21.417 6.92469 21.017C7.05802 20.6437 7.21802 20.2037 7.40469 19.697C7.61802 19.5103 7.72469 19.2703 7.72469 18.977C7.77802 19.0037 7.80469 19.0037 7.80469 18.977C7.83135 18.9237 7.84469 18.897 7.84469 18.897C7.89802 18.817 7.92469 18.737 7.92469 18.657C7.92469 18.5503 7.93802 18.457 7.96469 18.377V18.297C7.85802 18.0303 7.80469 17.8037 7.80469 17.617L7.72469 17.577C7.67135 17.417 7.63135 17.2437 7.60469 17.057C7.60469 16.8703 7.61802 16.697 7.64469 16.537C7.67135 16.377 7.65802 16.297 7.60469 16.297C7.57802 16.2703 7.56469 16.2303 7.56469 16.177C7.56469 16.1237 7.56469 16.0837 7.56469 16.057C7.59135 16.0037 7.61802 15.9237 7.64469 15.817C7.67135 15.7637 7.71135 15.6703 7.76469 15.537C7.84469 15.377 7.88469 15.2837 7.88469 15.257C7.88469 15.2037 7.87135 15.1637 7.84469 15.137C7.81802 15.0837 7.80469 15.0437 7.80469 15.017L7.92469 14.857V14.577C7.95135 14.5237 7.96469 14.457 7.96469 14.377C7.99135 14.3237 8.03135 14.2837 8.08469 14.257C8.13802 14.2037 8.17802 14.1637 8.20469 14.137C8.25802 14.0837 8.29802 14.017 8.32469 13.937C8.37802 13.8303 8.41802 13.7503 8.44469 13.697C8.47135 13.6437 8.49802 13.6037 8.52469 13.577C8.57802 13.5237 8.61802 13.457 8.64469 13.377C8.69802 13.297 8.73802 13.2303 8.76469 13.177C8.79135 13.097 8.83135 13.017 8.88469 12.937L9.16469 12.697C9.27135 12.5903 9.37802 12.537 9.48469 12.537C9.59136 12.537 9.65802 12.6437 9.68469 12.857L9.64469 13.057L9.00469 13.737C8.95136 13.7903 8.92469 13.857 8.92469 13.937C8.89802 13.9637 8.87135 13.9903 8.84469 14.017C8.84469 14.0437 8.83135 14.0837 8.80469 14.137C8.80469 14.1903 8.76469 14.257 8.68469 14.337L8.56469 14.697C8.51135 14.697 8.48469 14.7237 8.48469 14.777C8.45802 14.8037 8.43135 14.9637 8.40469 15.257C8.40469 15.5237 8.40469 15.6837 8.40469 15.737H8.52469C8.52469 15.7637 8.52469 15.8037 8.52469 15.857C8.55135 15.8837 8.55135 15.9237 8.52469 15.977V16.217C8.52469 16.2703 8.51135 16.3237 8.48469 16.377C8.48469 16.377 8.47135 16.3903 8.44469 16.417C8.44469 16.417 8.44469 16.4303 8.44469 16.457C8.44469 16.4837 8.45802 16.5237 8.48469 16.577C8.51135 16.6037 8.52469 16.6437 8.52469 16.697C8.52469 16.7237 8.51135 16.7503 8.48469 16.777C8.48469 16.777 8.48469 16.7903 8.48469 16.817C8.48469 16.8437 8.49802 16.8703 8.52469 16.897C8.55135 16.897 8.56469 16.9103 8.56469 16.937V16.977C8.77802 16.577 8.97802 16.1637 9.16469 15.737C9.37802 15.3103 9.59135 14.8837 9.80469 14.457C9.85802 14.3503 9.91135 14.3237 9.96469 14.377C10.0447 14.4037 10.098 14.3903 10.1247 14.337C10.1514 14.3103 10.1647 14.2437 10.1647 14.137C10.1647 14.057 10.1514 13.977 10.1247 13.897C10.1247 13.817 10.1647 13.7237 10.2447 13.617L10.8047 12.617C11.578 11.2303 12.3514 9.897 13.1247 8.617C13.9247 7.337 14.6714 6.35033 15.3647 5.657L15.4847 5.577L15.6047 5.377C15.6047 5.377 15.6314 5.36367 15.6847 5.337C15.738 5.31033 15.778 5.32366 15.8047 5.377C15.8047 5.40367 15.778 5.457 15.7247 5.537C15.698 5.617 15.6847 5.67033 15.6847 5.697C15.7647 5.83033 15.858 5.84367 15.9647 5.737C15.9914 5.68367 15.9914 5.56367 15.9647 5.377C15.938 5.19033 15.938 5.097 15.9647 5.097C16.018 5.07033 16.0447 5.07033 16.0447 5.097C16.0714 5.12367 16.098 5.137 16.1247 5.137C16.178 5.137 16.2047 5.097 16.2047 5.017C16.2047 4.937 16.218 4.88367 16.2447 4.857C16.538 4.75033 16.8047 4.697 17.0447 4.697C17.178 4.697 17.3647 4.76367 17.6047 4.897C17.8714 5.03033 18.0047 5.217 18.0047 5.457C18.0047 5.59033 17.938 5.75033 17.8047 5.937C17.778 5.96367 17.7514 6.017 17.7247 6.097C17.698 6.15033 17.658 6.20367 17.6047 6.257C17.578 6.28367 17.5514 6.297 17.5247 6.297C17.5247 6.27033 17.498 6.27033 17.4447 6.297C17.418 6.32367 17.378 6.337 17.3247 6.337C17.298 6.31033 17.258 6.297 17.2047 6.297C17.1514 6.297 17.138 6.337 17.1647 6.417C17.218 6.497 17.2314 6.55033 17.2047 6.577C17.178 6.60367 17.1514 6.60367 17.1247 6.577C17.098 6.55033 17.058 6.56367 17.0047 6.617C16.978 6.64367 16.9914 6.67033 17.0447 6.697C17.1247 6.697 17.138 6.72367 17.0847 6.777C16.9247 6.937 16.7247 7.11033 16.4847 7.297C16.2714 7.457 16.058 7.617 15.8447 7.777C15.818 7.80367 15.7914 7.80367 15.7647 7.777C15.738 7.72367 15.7114 7.71033 15.6847 7.737L15.4047 8.137C15.138 8.40367 14.8714 8.68367 14.6047 8.977C14.338 9.27033 14.058 9.60367 13.7647 9.977C13.6847 10.137 13.5914 10.2837 13.4847 10.417C13.378 10.5503 13.2314 10.6037 13.0447 10.577C13.0447 10.6037 13.0714 10.6437 13.1247 10.697C13.178 10.7237 13.178 10.777 13.1247 10.857C12.6714 11.497 12.218 12.1637 11.7647 12.857C11.3114 13.5503 10.8847 14.2703 10.4847 15.017C10.298 15.337 10.0714 15.7503 9.80469 16.257L9.44469 16.977C9.41802 17.057 9.37802 17.097 9.32469 17.097C9.29802 17.0703 9.25802 17.057 9.20469 17.057C9.28469 17.217 9.29802 17.3903 9.24469 17.577C9.27135 17.577 9.28469 17.5903 9.28469 17.617C9.79135 17.9637 10.1514 18.2037 10.3647 18.337C10.6047 18.4703 11.0047 18.6037 11.5647 18.737C11.778 18.7903 11.9914 18.857 12.2047 18.937C12.418 18.9903 12.6447 19.017 12.8847 19.017C12.9114 19.017 12.9114 19.0303 12.8847 19.057C12.8847 19.0837 12.898 19.097 12.9247 19.097C13.0314 19.097 13.138 19.1103 13.2447 19.137C13.3514 19.137 13.458 19.137 13.5647 19.137C13.5914 19.137 13.6047 19.137 13.6047 19.137C13.6314 19.1103 13.658 19.097 13.6847 19.097C13.738 19.097 13.818 19.1237 13.9247 19.177C14.1114 19.177 14.3114 19.177 14.5247 19.177C14.7647 19.177 14.978 19.1637 15.1647 19.137C15.378 19.1103 15.578 19.0837 15.7647 19.057C15.978 19.0037 16.178 18.9637 16.3647 18.937C16.738 18.9103 17.098 18.8437 17.4447 18.737C17.818 18.6037 18.178 18.4837 18.5247 18.377C18.9247 18.2437 19.3514 18.097 19.8047 17.937C20.2847 17.7503 20.778 17.537 21.2847 17.297C21.338 17.2703 21.3647 17.337 21.3647 17.497C21.3914 17.6303 21.4314 17.6837 21.4847 17.657C21.538 17.6303 21.6047 17.5237 21.6847 17.337C21.7914 17.1503 21.858 17.0437 21.8847 17.017L22.2447 16.537L22.5647 16.177C22.618 16.097 22.6714 15.9903 22.7247 15.857C22.778 15.7237 22.818 15.617 22.8447 15.537C22.9247 15.3237 22.9914 15.097 23.0447 14.857C23.098 14.617 23.1247 14.3637 23.1247 14.097C23.1247 13.9637 23.1914 13.897 23.3247 13.897C23.458 13.897 23.5247 13.9637 23.5247 14.097C23.5247 14.2303 23.5247 14.377 23.5247 14.537C23.5247 14.697 23.498 14.8437 23.4447 14.977C23.4447 15.0037 23.418 15.017 23.3647 15.017C23.338 14.9903 23.3247 14.9903 23.3247 15.017C23.298 15.2037 23.2714 15.4037 23.2447 15.617C23.218 15.8037 23.1514 15.9903 23.0447 16.177L22.8047 16.577C23.3647 16.2837 23.898 15.977 24.4047 15.657C24.938 15.3103 25.3914 14.9237 25.7647 14.497L26.1247 14.097C26.1514 14.0437 26.1914 14.0037 26.2447 13.977C26.298 13.9503 26.338 13.9903 26.3647 14.097C26.2847 14.177 26.2714 14.2837 26.3247 14.417C26.458 14.3903 26.538 14.2703 26.5647 14.057C26.5914 13.817 26.6314 13.6037 26.6847 13.417C26.9247 13.1237 27.1647 12.8037 27.4047 12.457C27.4314 12.4303 27.4714 12.417 27.5247 12.417C27.6314 12.417 27.7247 12.4303 27.8047 12.457C27.8847 12.4837 27.9647 12.4437 28.0447 12.337C27.9914 12.2037 27.938 12.1103 27.8847 12.057C27.8314 11.977 27.8447 11.8703 27.9247 11.737L28.0447 11.537C28.178 11.297 28.3247 11.1237 28.4847 11.017C28.6447 10.9103 28.7514 10.6837 28.8047 10.337C29.3114 9.43033 29.5647 8.44367 29.5647 7.377C29.5647 6.15033 29.178 5.017 28.4047 3.977C27.658 2.91033 26.5114 2.24367 24.9647 1.977C24.9114 1.977 24.7514 1.937 24.4847 1.857C24.2447 1.75033 24.098 1.697 24.0447 1.697C23.9914 1.697 23.938 1.697 23.8847 1.697C23.8314 1.67033 23.778 1.657 23.7247 1.657C23.618 1.657 23.538 1.67033 23.4847 1.697C23.4314 1.697 23.3114 1.67033 23.1247 1.617C22.8847 1.48367 22.578 1.40366 22.2047 1.377C21.858 1.32367 21.658 1.28367 21.6047 1.257L20.8847 1.417C20.7514 1.417 20.618 1.417 20.4847 1.417C20.378 1.39033 20.2714 1.377 20.1647 1.377C19.5514 1.377 19.0447 1.43033 18.6447 1.537C18.2714 1.617 17.938 1.67033 17.6447 1.697L16.0047 1.857C15.8447 1.777 15.698 1.80367 15.5647 1.937H15.5247C15.338 1.937 15.1514 1.96367 14.9647 2.017C14.8047 2.04367 14.6314 2.08366 14.4447 2.137C14.338 2.16367 14.218 2.177 14.0847 2.177C13.978 2.177 13.858 2.20367 13.7247 2.257V2.297C13.618 2.32367 13.498 2.35033 13.3647 2.377C13.258 2.377 13.138 2.40367 13.0047 2.457H12.9647C12.858 2.51033 12.7514 2.56367 12.6447 2.617C12.5647 2.67033 12.458 2.68367 12.3247 2.657C12.218 2.68367 12.098 2.71033 11.9647 2.737C11.858 2.76367 11.738 2.80367 11.6047 2.857H11.5247C11.4447 2.857 11.3647 2.777 11.2847 2.617C11.2047 2.457 11.1647 2.35033 11.1647 2.297C11.138 2.457 11.098 2.63033 11.0447 2.817C11.018 3.00367 10.9247 3.097 10.7647 3.097V3.137C10.578 3.16366 10.4047 3.217 10.2447 3.297C10.0847 3.377 9.91135 3.44367 9.72469 3.497C9.61802 3.52367 9.51136 3.537 9.40469 3.537C9.29802 3.51033 9.17802 3.497 9.04469 3.497C8.99135 3.497 8.93802 3.51033 8.88469 3.537C8.83135 3.537 8.77802 3.55033 8.72469 3.577C8.64469 3.60367 8.59135 3.657 8.56469 3.737C8.56469 3.817 8.53802 3.88367 8.48469 3.937C8.37802 4.04367 8.24469 4.12366 8.08469 4.177C7.92469 4.23033 7.79135 4.28367 7.68469 4.337C7.63135 4.36367 7.55135 4.337 7.44469 4.257C7.36469 4.177 7.29802 4.16367 7.24469 4.217C7.21802 4.24367 7.19135 4.31033 7.16469 4.417C7.16469 4.52367 7.13802 4.59033 7.08469 4.617H7.04469L6.08469 5.057C5.95135 5.11033 5.79135 5.19033 5.60469 5.297C5.41802 5.40367 5.25802 5.47033 5.12469 5.497C5.09802 5.497 5.08469 5.44367 5.08469 5.337C5.08469 5.23033 5.05802 5.20367 5.00469 5.257C4.87135 5.31033 4.72469 5.457 4.56469 5.697C4.43135 5.91033 4.29802 6.057 4.16469 6.137C4.03135 6.24367 3.89802 6.297 3.76469 6.297C3.63135 6.297 3.51135 6.35033 3.40469 6.457C3.32469 6.51033 3.24469 6.63033 3.16469 6.817C3.11135 6.977 3.04469 7.097 2.96469 7.177L2.40469 7.937C2.35135 7.99033 2.29802 8.04367 2.24469 8.097C2.19135 8.15033 2.16469 8.217 2.16469 8.297C2.00469 8.56367 1.92469 8.87033 1.92469 9.217C1.92469 9.80367 2.12469 10.2303 2.52469 10.497C2.95135 10.737 3.41802 10.9237 3.92469 11.057H3.96469C4.15135 11.1903 4.32469 11.2437 4.48469 11.217C4.59135 11.1637 4.68469 11.137 4.76469 11.137C4.87135 11.137 4.96469 11.1903 5.04469 11.297L5.60469 11.417C5.89802 11.497 6.04469 11.577 6.04469 11.657C6.04469 11.7103 5.97802 11.7637 5.84469 11.817C5.73802 11.8437 5.61802 11.857 5.48469 11.857C5.03135 11.857 4.47135 11.7637 3.80469 11.577C3.16469 11.3903 2.59135 11.097 2.08469 10.697C1.57802 10.2703 1.28469 9.75033 1.20469 9.137C1.20469 9.11033 1.16469 9.04367 1.08469 8.937C1.03135 8.83033 0.991354 8.737 0.964688 8.657C0.938021 8.52367 0.911354 8.40367 0.884688 8.297C0.884688 8.16367 0.884688 8.04367 0.884688 7.937C0.884688 7.08367 1.21802 6.297 1.88469 5.577C2.01802 5.44367 2.13802 5.35033 2.24469 5.297C2.35135 5.24367 2.48469 5.16367 2.64469 5.057C2.77802 4.95033 2.84469 4.87033 2.84469 4.817C2.84469 4.737 2.92469 4.64367 3.08469 4.537C3.29802 4.377 3.57802 4.217 3.92469 4.057C4.27135 3.87033 4.55135 3.72367 4.76469 3.617V3.577H4.84469C4.95135 3.577 5.05802 3.52367 5.16469 3.417C5.64469 3.177 6.15135 2.96367 6.68469 2.777C7.24469 2.56367 7.80469 2.36367 8.36469 2.177C8.52469 2.097 8.67135 2.057 8.80469 2.057C8.93802 2.057 9.04469 2.097 9.12469 2.177C9.12469 2.12367 9.12469 2.08367 9.12469 2.057C9.12469 2.00366 9.13802 1.96366 9.16469 1.937V1.897C9.77802 1.71033 10.3914 1.52367 11.0047 1.337C11.618 1.12367 12.218 1.017 12.8047 1.017H12.8447C13.0047 1.017 13.1247 0.990332 13.2047 0.936998L13.4447 0.896999H13.4847C13.6447 0.950332 13.7914 0.923666 13.9247 0.816999C14.5914 0.683666 15.2314 0.603665 15.8447 0.576998C16.458 0.550332 16.978 0.523665 17.4047 0.496998C17.4847 0.523665 17.5647 0.536999 17.6447 0.536999C17.7247 0.510332 17.7914 0.496998 17.8447 0.496998L18.2447 0.456999C18.3247 0.456999 18.4047 0.470332 18.4847 0.496998C18.5914 0.496998 18.6847 0.483665 18.7647 0.456999L21.0047 0.416999H21.0447C21.1247 0.416999 21.1914 0.456999 21.2447 0.536999C21.3247 0.590332 21.4047 0.563665 21.4847 0.456999C21.698 0.456999 22.018 0.496998 22.4447 0.576998C22.898 0.656999 23.3514 0.736999 23.8047 0.816999C24.258 0.870332 24.5914 0.923666 24.8047 0.976999C25.2047 1.057 25.7647 1.24367 26.4847 1.537C27.2314 1.80367 27.978 2.217 28.7247 2.777C29.4714 3.31033 30.0714 4.03033 30.5247 4.937C31.0047 5.817 31.178 6.92367 31.0447 8.257C31.018 8.737 30.9114 9.19033 30.7247 9.617C30.538 10.0437 30.338 10.4837 30.1247 10.937L29.7247 11.817C29.698 11.8437 29.658 11.8837 29.6047 11.937C29.5514 11.9637 29.498 12.0037 29.4447 12.057C29.418 12.137 29.378 12.2037 29.3247 12.257C29.2714 12.2837 29.218 12.337 29.1647 12.417C29.058 12.577 28.938 12.737 28.8047 12.897C28.6714 13.0303 28.538 13.1903 28.4047 13.377L28.3247 13.497C27.9514 14.0837 27.4847 14.617 26.9247 15.097C26.3647 15.5503 25.8047 15.9637 25.2447 16.337V16.377C25.1914 16.4037 25.1247 16.4437 25.0447 16.497C24.9914 16.5237 24.938 16.5637 24.8847 16.617L24.8447 16.657H24.8047C24.7514 16.6837 24.6847 16.7103 24.6047 16.737C24.5247 16.7637 24.458 16.8303 24.4047 16.937C24.298 17.017 24.1914 17.057 24.0847 17.057C23.738 17.2437 23.418 17.4037 23.1247 17.537C22.8314 17.6437 22.578 17.7503 22.3647 17.857C22.3647 17.9103 22.3247 17.9903 22.2447 18.097C22.1647 18.2037 22.098 18.2837 22.0447 18.337C21.5914 18.7103 21.2847 19.017 21.1247 19.257C20.9647 19.497 20.7647 19.6837 20.5247 19.817C20.498 19.8437 20.458 19.857 20.4047 19.857C20.298 19.857 20.218 19.897 20.1647 19.977C20.1114 20.057 20.058 20.137 20.0047 20.217C19.8714 20.3503 19.6047 20.4837 19.2047 20.617C18.8314 20.7503 18.5514 20.8837 18.3647 21.017C18.2847 21.0437 18.1914 21.0703 18.0847 21.097C18.0047 21.1503 17.9647 21.177 17.9647 21.177H17.7647C17.738 21.177 17.6847 21.2037 17.6047 21.257C17.5247 21.337 17.458 21.3903 17.4047 21.417C17.3514 21.4437 17.298 21.457 17.2447 21.457C17.1914 21.457 17.1514 21.4837 17.1247 21.537C16.9914 21.537 16.8447 21.5637 16.6847 21.617C16.658 21.617 16.5247 21.617 16.2847 21.617C16.0447 21.6437 15.898 21.6703 15.8447 21.697C15.818 21.7237 15.7247 21.7637 15.5647 21.817C15.4047 21.8703 15.298 21.897 15.2447 21.897C15.218 21.897 15.1914 21.8837 15.1647 21.857C15.138 21.857 15.098 21.8703 15.0447 21.897C15.018 21.9503 14.978 21.977 14.9247 21.977C14.898 21.977 14.8447 21.9637 14.7647 21.937C14.7114 21.937 14.658 21.937 14.6047 21.937C14.578 21.9103 14.5247 21.9237 14.4447 21.977C14.3914 22.0303 14.338 22.057 14.2847 22.057C14.258 22.057 14.2314 22.0437 14.2047 22.017C14.2047 22.017 14.1914 22.017 14.1647 22.017C14.1114 22.017 14.058 22.0303 14.0047 22.057C13.9514 22.0837 13.898 22.097 13.8447 22.097C13.658 22.097 13.4847 22.0837 13.3247 22.057C13.1647 22.0303 13.0047 22.017 12.8447 22.017C12.818 22.017 12.738 21.977 12.6047 21.897C12.498 21.817 12.4314 21.777 12.4047 21.777C12.218 21.777 12.0314 21.7637 11.8447 21.737C11.6847 21.737 11.5247 21.7237 11.3647 21.697C11.338 21.697 11.3114 21.6703 11.2847 21.617C11.2847 21.5903 11.258 21.577 11.2047 21.577H11.1247C11.098 21.577 11.0314 21.5503 10.9247 21.497C10.8447 21.4437 10.7914 21.4037 10.7647 21.377L10.7247 21.337C10.618 21.3103 10.5514 21.2703 10.5247 21.217C10.5247 21.1637 10.498 21.137 10.4447 21.137C10.418 21.137 10.4047 21.137 10.4047 21.137C10.4047 21.1637 10.3914 21.177 10.3647 21.177C10.3114 21.177 10.2847 21.1503 10.2847 21.097C10.2047 21.0437 10.0714 20.977 9.88469 20.897C9.72469 20.817 9.61802 20.7237 9.56469 20.617C9.45802 20.5903 9.39135 20.5637 9.36469 20.537C9.36469 20.5103 9.33802 20.457 9.28469 20.377L9.12469 20.297L8.72469 19.937C8.72469 19.857 8.71135 19.817 8.68469 19.817L8.56469 19.737C8.56469 19.6303 8.52469 19.577 8.44469 19.577C8.39135 19.417 8.36469 19.337 8.36469 19.337C8.12469 19.8703 7.91135 20.3903 7.72469 20.897C7.56469 21.4037 7.41802 21.8703 7.28469 22.297C7.23135 22.5103 7.15135 22.617 7.04469 22.617ZM14.0447 21.417C14.098 21.417 14.138 21.4037 14.1647 21.377C14.218 21.3503 14.258 21.3237 14.2847 21.297H14.4447C14.6314 21.1903 14.7247 21.1903 14.7247 21.297C14.7247 21.4037 14.7914 21.4037 14.9247 21.297H15.1247C15.1514 21.217 15.1914 21.177 15.2447 21.177C15.3247 21.177 15.378 21.1637 15.4047 21.137C15.458 21.137 15.4847 21.1103 15.4847 21.057C15.5114 21.0303 15.5647 21.017 15.6447 21.017C15.6714 21.017 15.7114 21.0437 15.7647 21.097C15.8714 21.097 16.0847 21.0437 16.4047 20.937C16.7514 20.8303 16.938 20.777 16.9647 20.777C16.9914 20.8037 17.0314 20.777 17.0847 20.697C17.1647 20.617 17.218 20.5903 17.2447 20.617C17.2447 20.5903 17.2847 20.5637 17.3647 20.537C17.4447 20.537 17.498 20.5237 17.5247 20.497C17.6847 20.417 17.818 20.377 17.9247 20.377C17.9514 20.3503 18.018 20.297 18.1247 20.217C18.258 20.1637 18.3247 20.1237 18.3247 20.097C18.378 20.0437 18.458 20.0037 18.5647 19.977C18.6714 19.9503 18.738 19.9237 18.7647 19.897C18.8447 19.897 19.1114 19.7637 19.5647 19.497C20.0447 19.2037 20.4847 18.857 20.8847 18.457C20.4314 18.617 19.9914 18.7503 19.5647 18.857C19.1647 18.937 18.9514 18.977 18.9247 18.977C18.8714 19.0303 18.8314 19.057 18.8047 19.057C18.698 19.0037 18.6447 18.977 18.6447 18.977L18.6047 19.017C18.578 19.017 18.5514 19.0303 18.5247 19.057C18.498 19.0837 18.4447 19.097 18.3647 19.097C18.338 19.0703 18.258 19.097 18.1247 19.177C18.018 19.2303 17.9514 19.257 17.9247 19.257C17.898 19.257 17.858 19.2703 17.8047 19.297C17.778 19.297 17.738 19.2837 17.6847 19.257C17.578 19.3637 17.298 19.4437 16.8447 19.497C16.418 19.5237 16.138 19.537 16.0047 19.537H15.9647C15.938 19.5103 15.898 19.5103 15.8447 19.537C15.818 19.537 15.778 19.537 15.7247 19.537C15.7247 19.5637 15.7114 19.5903 15.6847 19.617H15.4447C15.338 19.617 15.2314 19.6303 15.1247 19.657C15.0447 19.6837 14.9514 19.697 14.8447 19.697L14.8047 19.657C14.778 19.657 14.738 19.6703 14.6847 19.697C14.6314 19.7237 14.5914 19.737 14.5647 19.737C14.538 19.737 14.5114 19.7237 14.4847 19.697C14.4847 19.6437 14.458 19.617 14.4047 19.617C14.378 19.617 14.338 19.6437 14.2847 19.697C14.258 19.7237 14.2314 19.7237 14.2047 19.697H14.0447C13.9647 19.697 13.9247 19.697 13.9247 19.697C13.898 19.697 13.8714 19.7103 13.8447 19.737C13.8447 19.737 13.8314 19.737 13.8047 19.737C13.8047 19.737 13.778 19.7103 13.7247 19.657C13.698 19.657 13.6447 19.6837 13.5647 19.737C13.5114 19.7637 13.458 19.7637 13.4047 19.737H13.3247C13.2714 19.6837 13.2447 19.657 13.2447 19.657C13.218 19.657 13.2047 19.6703 13.2047 19.697H12.8447C12.6847 19.697 12.5247 19.6437 12.3647 19.537C12.2047 19.4303 12.058 19.377 11.9247 19.377C11.898 19.377 11.8714 19.3903 11.8447 19.417C11.8447 19.417 11.8314 19.417 11.8047 19.417C11.778 19.417 11.7514 19.417 11.7247 19.417C11.7247 19.3903 11.7114 19.377 11.6847 19.377C11.6847 19.377 11.6714 19.377 11.6447 19.377C11.6447 19.377 11.6314 19.3903 11.6047 19.417C11.6047 19.3903 11.5914 19.377 11.5647 19.377C11.5647 19.3503 11.5647 19.337 11.5647 19.337L11.2047 19.257C11.2047 19.177 11.178 19.137 11.1247 19.137C11.098 19.057 10.9247 18.977 10.6047 18.897C10.2847 18.817 10.098 18.7637 10.0447 18.737C10.018 18.737 9.96469 18.7103 9.88469 18.657C9.83135 18.6037 9.80469 18.5903 9.80469 18.617H9.76469C9.68469 18.617 9.57802 18.5637 9.44469 18.457C9.33802 18.3237 9.23136 18.2437 9.12469 18.217C9.04469 18.137 9.00469 18.057 9.00469 17.977H8.96469L8.92469 18.017L8.84469 18.257C8.84469 18.2837 8.85802 18.337 8.88469 18.417C8.91135 18.497 8.91135 18.5637 8.88469 18.617C8.93802 18.6703 8.96469 18.737 8.96469 18.817C8.96469 18.8703 8.99135 18.9103 9.04469 18.937C9.07135 19.017 9.09802 19.097 9.12469 19.177C9.17802 19.257 9.21802 19.337 9.24469 19.417C9.24469 19.4437 9.31135 19.497 9.44469 19.577C9.57802 19.6303 9.64469 19.6837 9.64469 19.737C9.67135 19.7637 9.69802 19.7903 9.72469 19.817C9.77802 19.8437 9.80469 19.8837 9.80469 19.937C9.83135 19.9637 9.85802 20.0037 9.88469 20.057C9.91136 20.1103 9.92469 20.1637 9.92469 20.217C9.97802 20.217 10.018 20.2303 10.0447 20.257C10.0714 20.3103 10.138 20.3903 10.2447 20.497C10.3514 20.6303 10.4314 20.7103 10.4847 20.737C10.5114 20.737 10.5247 20.7237 10.5247 20.697C10.5247 20.697 10.538 20.697 10.5647 20.697C10.618 20.7237 10.6847 20.777 10.7647 20.857C10.8447 20.9637 10.898 21.017 10.9247 21.017C10.978 21.017 11.0047 21.017 11.0047 21.017C11.218 21.0437 11.4314 21.0703 11.6447 21.097C11.858 21.1503 12.0714 21.1903 12.2847 21.217C12.3114 21.217 12.3514 21.2303 12.4047 21.257C12.458 21.3103 12.5247 21.337 12.6047 21.337C12.818 21.3637 13.0714 21.377 13.3647 21.377C13.6847 21.377 13.898 21.377 14.0047 21.377L14.0447 21.417ZM32.73 19.817C32.0633 19.817 31.4767 19.6303 30.97 19.257C30.4633 18.8837 30.21 18.2437 30.21 17.337C30.21 16.9903 30.25 16.6437 30.33 16.297C30.41 15.9237 30.5033 15.5637 30.61 15.217C30.6633 14.8703 30.7433 14.5637 30.85 14.297C30.8767 14.1903 30.89 14.137 30.89 14.137C30.9167 14.1103 30.9833 14.0703 31.09 14.017L31.41 13.537V13.377C31.3833 13.377 31.37 13.377 31.37 13.377C31.37 13.3503 31.37 13.337 31.37 13.337C31.37 13.257 31.4367 13.1637 31.57 13.057C31.7033 12.9503 31.77 12.897 31.77 12.897C31.7967 12.7637 31.8367 12.697 31.89 12.697C31.9433 12.697 32.01 12.657 32.09 12.577H32.53V12.497C32.53 12.3637 32.4633 12.3103 32.33 12.337C32.2233 12.337 32.17 12.3237 32.17 12.297C32.17 12.2703 32.21 12.217 32.29 12.137C32.3967 12.0303 32.4633 11.9637 32.49 11.937C32.57 11.8303 32.6367 11.737 32.69 11.657C32.7433 11.5503 32.8233 11.4703 32.93 11.417C33.41 10.8303 33.7033 10.457 33.81 10.297C33.9433 10.137 34.0767 10.017 34.21 9.937C34.2633 9.937 34.3033 9.96367 34.33 10.017C34.3833 10.0437 34.3833 10.0837 34.33 10.137C34.3833 10.217 34.4233 10.2303 34.45 10.177C34.5033 10.1237 34.53 10.097 34.53 10.097L34.69 10.017C34.6367 9.96367 34.61 9.897 34.61 9.817C34.61 9.68367 34.6367 9.577 34.69 9.497C34.7433 9.39033 34.8367 9.28367 34.97 9.177C35.13 9.07033 35.21 9.00367 35.21 8.977C35.37 8.92367 35.49 8.87033 35.57 8.817C35.6767 8.76367 35.7833 8.737 35.89 8.737C36.0767 8.737 36.2633 8.80367 36.45 8.937C36.9567 9.20367 37.3833 9.47033 37.73 9.737C38.0767 10.0037 38.25 10.377 38.25 10.857C38.25 11.3637 38.0367 11.8037 37.61 12.177C37.21 12.5237 36.7167 12.817 36.13 13.057C35.5433 13.297 34.9567 13.497 34.37 13.657C33.81 13.7903 33.37 13.897 33.05 13.977C32.8633 14.0037 32.77 14.0837 32.77 14.217C32.7967 14.3237 32.7833 14.4437 32.73 14.577L32.45 15.017L32.21 15.577L32.01 15.937C31.8233 16.097 31.7567 16.217 31.81 16.297C31.8633 16.377 31.9567 16.3637 32.09 16.257C32.1167 16.2837 32.13 16.3237 32.13 16.377C32.13 16.4837 32.1033 16.617 32.05 16.777C31.9967 16.9103 31.9567 17.017 31.93 17.097C31.9033 17.2037 31.9033 17.257 31.93 17.257C31.9833 17.2303 32.01 17.2837 32.01 17.417L32.05 17.977C32.21 18.4837 32.57 18.777 33.13 18.857C33.1833 18.857 33.2367 18.8703 33.29 18.897C33.37 18.897 33.4367 18.897 33.49 18.897C33.97 18.897 34.2233 18.857 34.25 18.777C34.3033 18.697 34.37 18.6437 34.45 18.617C34.69 18.5637 34.89 18.5103 35.05 18.457C35.2367 18.4037 35.4233 18.3237 35.61 18.217C35.93 18.0837 36.2367 17.9103 36.53 17.697C36.8233 17.4837 37.13 17.2703 37.45 17.057L37.85 16.777C37.8767 16.7237 37.8767 16.6837 37.85 16.657C37.8233 16.6303 37.8233 16.6037 37.85 16.577C37.9033 16.5503 37.9433 16.5503 37.97 16.577C38.0233 16.577 38.0633 16.5637 38.09 16.537C38.1433 16.5103 38.1967 16.4703 38.25 16.417C38.3033 16.337 38.3567 16.2703 38.41 16.217C38.4633 16.1637 38.49 16.1103 38.49 16.057C38.5167 16.0037 38.5567 15.9503 38.61 15.897C38.8233 15.6837 39.0367 15.457 39.25 15.217C39.49 14.977 39.69 14.7637 39.85 14.577C40.0367 14.3103 40.1833 14.177 40.29 14.177C40.3433 14.177 40.37 14.2037 40.37 14.257C40.37 14.3903 40.2767 14.5903 40.09 14.857C39.6367 15.5237 39.1167 16.177 38.53 16.817C37.9433 17.4303 37.3033 17.9903 36.61 18.497C36.1033 18.8437 35.5033 19.1503 34.81 19.417C34.1167 19.6837 33.4233 19.817 32.73 19.817ZM33.33 13.377C33.73 13.3503 34.25 13.2437 34.89 13.057C35.53 12.8437 36.0633 12.5637 36.49 12.217C36.9433 11.8437 37.17 11.4303 37.17 10.977C37.17 10.5503 36.9433 10.137 36.49 9.737C36.1167 10.0037 35.7033 10.3903 35.25 10.897C34.8233 11.377 34.4367 11.857 34.09 12.337C33.7433 12.7903 33.49 13.137 33.33 13.377ZM42.8372 19.897C42.8105 19.897 42.7705 19.8703 42.7172 19.817C42.6639 19.7903 42.6239 19.777 42.5972 19.777C42.4905 19.8037 42.3972 19.817 42.3172 19.817C42.2372 19.817 42.1572 19.817 42.0772 19.817C42.0505 19.817 42.0239 19.8037 41.9972 19.777C41.9972 19.7503 41.9839 19.737 41.9572 19.737C41.9305 19.737 41.9172 19.737 41.9172 19.737C41.9439 19.7637 41.9439 19.777 41.9172 19.777C41.9172 19.777 41.8905 19.7637 41.8372 19.737C41.7839 19.7103 41.7439 19.697 41.7172 19.697L41.6772 19.657C41.6239 19.657 41.5839 19.6437 41.5572 19.617C41.5572 19.5903 41.5439 19.577 41.5172 19.577L41.4772 19.617L41.4372 19.577C41.3839 19.5503 41.3039 19.5237 41.1972 19.497C41.1172 19.4437 41.0505 19.4037 40.9972 19.377C40.9439 19.377 40.8772 19.337 40.7972 19.257H40.7172C40.6639 19.177 40.5705 19.1237 40.4372 19.097C40.4372 19.0703 40.4239 19.0437 40.3972 19.017H40.3572C40.3039 18.937 40.2639 18.9103 40.2372 18.937C40.2105 18.8837 40.1705 18.8437 40.1172 18.817C40.0905 18.7637 40.0505 18.7237 39.9972 18.697C39.9972 18.5903 39.9705 18.537 39.9172 18.537C39.9172 18.4837 39.8639 18.4037 39.7572 18.297C39.6772 18.1903 39.6239 18.097 39.5972 18.017L39.5572 17.977C39.4505 17.8703 39.3705 17.697 39.3172 17.457C39.2905 17.3503 39.2639 17.3103 39.2372 17.337C39.2372 17.3637 39.2239 17.297 39.1972 17.137C39.1972 17.1103 39.1972 17.0703 39.1972 17.017C39.2239 16.937 39.2239 16.8837 39.1972 16.857C39.1972 16.8303 39.1839 16.817 39.1572 16.817C39.1572 16.7903 39.1572 16.7637 39.1572 16.737C39.1305 16.7103 39.1172 16.697 39.1172 16.697C39.1439 16.6703 39.1572 16.657 39.1572 16.657C39.1572 16.6037 39.1439 16.577 39.1172 16.577C39.1172 16.5503 39.1172 16.5237 39.1172 16.497V16.417C39.1172 16.2837 39.1439 16.1903 39.1972 16.137C39.1972 16.0837 39.2105 16.0437 39.2372 16.017C39.2639 15.9903 39.2772 15.9637 39.2772 15.937C39.2772 15.8837 39.3039 15.857 39.3572 15.857C39.4105 15.857 39.4372 15.8437 39.4372 15.817C39.4372 15.7637 39.4505 15.737 39.4772 15.737C39.5305 15.7103 39.5705 15.6837 39.5972 15.657C39.5972 15.6303 39.6105 15.6037 39.6372 15.577C39.6905 15.5503 39.7172 15.5237 39.7172 15.497C39.8505 15.417 39.9972 15.377 40.1572 15.377C40.4772 15.377 40.6372 15.457 40.6372 15.617C40.6372 15.6703 40.5572 15.7637 40.3972 15.897C40.3705 15.977 40.3572 16.0303 40.3572 16.057C40.3839 16.057 40.3705 16.0837 40.3172 16.137C40.3439 16.217 40.3572 16.3237 40.3572 16.457C40.3305 16.457 40.3172 16.497 40.3172 16.577C40.3439 16.6303 40.3572 16.657 40.3572 16.657C40.3572 16.6837 40.3705 16.7637 40.3972 16.897C40.4505 17.0303 40.4905 17.1103 40.5172 17.137C40.5172 17.137 40.5439 17.2037 40.5972 17.337C40.6505 17.4437 40.6772 17.5103 40.6772 17.537V17.617C40.7305 17.697 40.7572 17.7503 40.7572 17.777C40.7839 17.777 40.8905 17.8303 41.0772 17.937C41.1039 17.9637 41.1572 17.977 41.2372 17.977C41.3705 18.057 41.4639 18.1237 41.5172 18.177C41.5972 18.2303 41.7839 18.2837 42.0772 18.337C42.1839 18.3637 42.2239 18.3903 42.1972 18.417C42.1972 18.417 42.2505 18.417 42.3572 18.417C42.3572 18.417 42.3572 18.4303 42.3572 18.457C42.3572 18.457 42.3705 18.457 42.3972 18.457C42.4505 18.4303 42.5039 18.4303 42.5572 18.457C42.6105 18.457 42.6639 18.4437 42.7172 18.417H42.8772C43.0639 18.417 43.2639 18.3903 43.4772 18.337L44.0772 18.177C44.2639 18.1503 44.4372 18.097 44.5972 18.017C44.7572 17.937 44.9039 17.857 45.0372 17.777C45.0639 17.777 45.1439 17.737 45.2772 17.657C45.4105 17.5503 45.5705 17.4437 45.7572 17.337C45.7305 17.257 45.7172 17.1503 45.7172 17.017C45.7172 16.937 45.7572 16.897 45.8372 16.897C45.9172 16.8703 45.9705 16.8303 45.9972 16.777C45.9172 16.7237 45.8105 16.697 45.6772 16.697C45.5705 16.697 45.5305 16.657 45.5572 16.577C45.4505 15.9903 45.2905 15.457 45.0772 14.977C44.8905 14.497 44.6639 13.9637 44.3972 13.377C44.3705 13.297 44.3172 13.1637 44.2372 12.977C44.1572 12.7903 44.1039 12.6437 44.0772 12.537C44.0772 12.5103 44.1039 12.5103 44.1572 12.537C44.2105 12.537 44.2239 12.5237 44.1972 12.497C44.1705 12.3637 44.1439 12.2303 44.1172 12.097C44.1172 11.9637 44.1039 11.8437 44.0772 11.737C44.0505 11.6837 44.0772 11.6437 44.1572 11.617C44.2372 11.5903 44.2639 11.5503 44.2372 11.497C44.2105 11.4437 44.1572 11.4303 44.0772 11.457C43.9972 11.4837 43.9439 11.4703 43.9172 11.417L43.7972 10.937C43.7972 10.8037 43.7705 10.7237 43.7172 10.697C43.6905 10.6703 43.7172 10.617 43.7972 10.537C43.8505 10.5103 43.8772 10.4703 43.8772 10.417C43.8772 10.337 43.8905 10.2837 43.9172 10.257C44.0505 10.177 44.1039 10.0837 44.0772 9.977C44.0505 9.84367 44.0772 9.72367 44.1572 9.617C44.2372 9.51033 44.3039 9.417 44.3572 9.337C44.4105 9.23033 44.4905 9.16367 44.5972 9.137C44.6772 9.08367 44.7039 9.097 44.6772 9.177C44.6505 9.257 44.6505 9.297 44.6772 9.297C44.8105 9.297 44.8639 9.23033 44.8372 9.097C44.8105 8.96367 44.8505 8.84367 44.9572 8.737C45.1439 8.577 45.4239 8.44367 45.7972 8.337C46.1705 8.23033 46.4505 8.16367 46.6372 8.137C46.6905 8.137 46.7305 8.137 46.7572 8.137C46.8105 8.11033 46.8505 8.097 46.8772 8.097C47.0105 8.097 47.1439 8.11033 47.2772 8.137C47.4372 8.16367 47.5839 8.19033 47.7172 8.217C47.8239 8.24367 47.9839 8.35033 48.1972 8.537C48.4105 8.697 48.5705 8.737 48.6772 8.657C48.9172 8.44367 49.1705 8.257 49.4372 8.097C49.7305 7.937 49.9172 7.87033 49.9972 7.897C50.2105 7.92367 50.3972 7.99033 50.5572 8.097C50.7172 8.177 50.7705 8.44367 50.7172 8.897C50.6905 9.057 50.6239 9.19033 50.5172 9.297C50.4372 9.377 50.3572 9.48367 50.2772 9.617L49.9972 10.017C49.8905 10.2037 49.7572 10.3903 49.5972 10.577C49.4639 10.7637 49.3439 10.8837 49.2372 10.937C49.1305 10.9903 49.0239 11.0837 48.9172 11.217C48.8372 11.3237 48.7305 11.4303 48.5972 11.537C48.4639 11.6437 48.3172 11.7237 48.1572 11.777C48.0239 11.8037 47.9305 11.8303 47.8772 11.857C47.7972 11.8837 47.6772 11.897 47.5172 11.897C47.3839 11.8703 47.3439 11.817 47.3972 11.737C47.4505 11.7103 47.4639 11.6837 47.4372 11.657C47.4105 11.6037 47.3972 11.5637 47.3972 11.537C47.3972 11.4837 47.4239 11.4437 47.4772 11.417C47.5572 11.3903 47.6105 11.3503 47.6372 11.297C47.6639 11.2703 47.7305 11.177 47.8372 11.017C47.9705 10.857 48.0239 10.7637 47.9972 10.737C47.9972 10.657 48.0239 10.5903 48.0772 10.537C48.0772 10.4837 48.0772 10.4437 48.0772 10.417C48.0772 10.3637 48.1039 10.3237 48.1572 10.297C48.2639 10.2703 48.3172 10.2303 48.3172 10.177V9.697C48.3172 9.59033 48.3039 9.48367 48.2772 9.377C48.2772 9.27033 48.2505 9.177 48.1972 9.097C47.9839 8.83033 47.6372 8.697 47.1572 8.697C46.8105 8.697 46.4772 8.777 46.1572 8.937C45.8105 9.097 45.5172 9.36367 45.2772 9.737C45.0905 10.0037 44.9972 10.2837 44.9972 10.577C44.9972 10.7903 45.0372 11.0037 45.1172 11.217C45.2239 11.4303 45.3172 11.6303 45.3972 11.817C45.4772 12.0037 45.5839 12.2303 45.7172 12.497C45.8772 12.7637 45.9972 12.977 46.0772 13.137C46.2105 13.3503 46.3572 13.6037 46.5172 13.897C46.6772 14.1637 46.7972 14.417 46.8772 14.657C46.9039 14.6837 46.8772 14.7103 46.7972 14.737C46.7439 14.737 46.7305 14.7637 46.7572 14.817C46.7839 14.8703 46.8239 14.897 46.8772 14.897C46.9305 14.897 46.9705 14.9237 46.9972 14.977C47.0505 15.057 47.0505 15.1237 46.9972 15.177C46.9705 15.2303 46.9705 15.3103 46.9972 15.417C46.9972 15.4437 47.0239 15.4703 47.0772 15.497C47.1305 15.5237 47.1572 15.5503 47.1572 15.577C47.2905 15.9237 47.3572 16.2037 47.3572 16.417C47.5972 16.2837 47.8639 16.1237 48.1572 15.937C48.4505 15.7503 48.6105 15.577 48.6372 15.417C48.6639 15.3637 48.7039 15.3503 48.7572 15.377C48.8372 15.377 48.8772 15.4037 48.8772 15.457C48.8505 15.6437 48.6239 15.897 48.1972 16.217C47.7972 16.537 47.4905 16.7637 47.2772 16.897C47.3039 16.9237 47.2905 16.9903 47.2372 17.097C47.1839 17.2037 47.1705 17.2837 47.1972 17.337C47.1972 17.3637 47.1839 17.4037 47.1572 17.457C47.1305 17.4837 47.1039 17.5237 47.0772 17.577C47.0772 17.6837 47.0505 17.7637 46.9972 17.817V17.897L46.8772 17.977C46.8505 18.0037 46.8105 18.0703 46.7572 18.177C46.7305 18.257 46.6905 18.3237 46.6372 18.377H46.5172C46.4639 18.4303 46.4372 18.497 46.4372 18.577C46.3839 18.657 46.2639 18.7503 46.0772 18.857C45.8905 18.937 45.7705 19.017 45.7172 19.097C45.7172 19.097 45.7039 19.097 45.6772 19.097C45.6505 19.097 45.6105 19.1237 45.5572 19.177H45.4372C45.4105 19.177 45.3839 19.2037 45.3572 19.257C45.3305 19.2837 45.3039 19.3103 45.2772 19.337C45.1972 19.337 45.1572 19.3637 45.1572 19.417C45.0505 19.417 44.9705 19.4303 44.9172 19.457L44.5172 19.537C44.4105 19.6437 44.3172 19.697 44.2372 19.697L44.1972 19.657C44.1439 19.7103 44.1039 19.737 44.0772 19.737H43.9172C43.8905 19.737 43.8639 19.7503 43.8372 19.777C43.8105 19.8037 43.7839 19.817 43.7572 19.817H43.6772C43.6505 19.817 43.6239 19.817 43.5972 19.817C43.5972 19.8437 43.5705 19.857 43.5172 19.857C43.4372 19.857 43.3172 19.857 43.1572 19.857C43.0239 19.857 42.9172 19.8703 42.8372 19.897ZM42.4372 19.537C42.4372 19.537 42.4639 19.537 42.5172 19.537C42.5972 19.5103 42.6505 19.497 42.6772 19.497C42.8105 19.497 42.9305 19.5103 43.0372 19.537C43.1439 19.537 43.2505 19.537 43.3572 19.537C43.4105 19.537 43.4372 19.5103 43.4372 19.457H43.5172C43.5972 19.377 43.6372 19.3637 43.6372 19.417C43.6639 19.4703 43.7039 19.4703 43.7572 19.417C43.8105 19.417 43.8372 19.4037 43.8372 19.377L43.9972 19.297C44.0239 19.297 44.0372 19.297 44.0372 19.297C44.0372 19.2703 44.0505 19.257 44.0772 19.257H44.1572C44.2105 19.257 44.2639 19.2303 44.3172 19.177C44.3705 19.1237 44.3972 19.097 44.3972 19.097C44.3972 19.097 44.4372 19.057 44.5172 18.977C44.5172 18.977 44.5305 18.977 44.5572 18.977C44.5839 18.9503 44.6105 18.937 44.6372 18.937C44.6905 18.8837 44.7439 18.857 44.7972 18.857C44.7972 18.8303 44.8239 18.8037 44.8772 18.777C44.9305 18.7237 44.9572 18.697 44.9572 18.697C44.9839 18.6703 45.0105 18.657 45.0372 18.657C45.0905 18.6303 45.1172 18.6037 45.1172 18.577C45.1705 18.577 45.2772 18.4837 45.4372 18.297C45.5972 18.1103 45.7039 17.8837 45.7572 17.617C45.7572 17.5637 45.6772 17.6037 45.5172 17.737C45.3572 17.8437 45.2772 17.897 45.2772 17.897C45.1972 17.9237 45.1172 17.977 45.0372 18.057C44.9572 18.1103 44.8905 18.137 44.8372 18.137C44.8105 18.137 44.7705 18.1637 44.7172 18.217C44.6905 18.2437 44.6639 18.257 44.6372 18.257C44.6105 18.257 44.5972 18.2703 44.5972 18.297C44.5972 18.297 44.5705 18.2837 44.5172 18.257C44.4905 18.3103 44.4105 18.3637 44.2772 18.417C44.1439 18.4703 44.0505 18.497 43.9972 18.497H43.8772L43.8372 18.537C43.8372 18.537 43.8239 18.5503 43.7972 18.577C43.7705 18.577 43.7439 18.577 43.7172 18.577L43.4372 18.617H43.3972C43.3705 18.617 43.3439 18.6303 43.3172 18.657C43.2105 18.657 43.0905 18.6703 42.9572 18.697C42.8239 18.7237 42.7439 18.737 42.7172 18.737H42.6772C42.6772 18.7103 42.6639 18.697 42.6372 18.697V18.737H42.4372C42.3572 18.737 42.2639 18.7237 42.1572 18.697C42.0772 18.6437 42.0105 18.617 41.9572 18.617C41.9305 18.617 41.9172 18.6303 41.9172 18.657C41.9172 18.657 41.9039 18.657 41.8772 18.657H41.7972C41.7705 18.657 41.7572 18.6437 41.7572 18.617H41.5572C41.5572 18.537 41.5305 18.5237 41.4772 18.577H41.4372C41.3305 18.577 41.2372 18.537 41.1572 18.457C41.1039 18.377 41.0105 18.337 40.8772 18.337L40.7572 18.217C40.7572 18.2437 40.7439 18.2703 40.7172 18.297C40.7172 18.297 40.7172 18.3103 40.7172 18.337C40.7172 18.337 40.7305 18.3637 40.7572 18.417C40.8105 18.4437 40.8372 18.4703 40.8372 18.497L40.9172 18.657L41.0772 18.857L41.1572 18.937C41.1839 18.9637 41.1972 18.977 41.1972 18.977C41.2239 18.977 41.2505 19.0037 41.2772 19.057C41.3305 19.057 41.3572 19.097 41.3572 19.177C41.8105 19.417 42.1705 19.537 42.4372 19.537ZM51.6956 19.857C51.5356 19.857 51.4556 19.7637 51.4556 19.577C51.4556 19.4437 51.4956 19.2837 51.5756 19.097C51.789 18.6437 52.029 18.0037 52.2956 17.177C52.589 16.3503 52.949 15.6437 53.3756 15.057L55.3756 10.937C55.2156 10.937 55.0556 10.977 54.8956 11.057C54.7623 11.137 54.6956 11.2037 54.6956 11.257C54.6956 11.3637 54.549 11.4703 54.2556 11.577C53.9623 11.6837 53.8023 11.7503 53.7756 11.777C53.3756 11.8837 53.0023 12.0037 52.6556 12.137C52.389 12.4303 52.1223 12.7237 51.8556 13.017C51.6156 13.3103 51.389 13.6037 51.1756 13.897C51.149 13.9237 51.1223 13.937 51.0956 13.937C50.8556 14.2037 50.6556 14.4037 50.4956 14.537C50.3356 14.6703 50.1623 14.7903 49.9756 14.897C49.869 14.977 49.7623 15.0037 49.6556 14.977C49.5223 14.9237 49.509 14.8703 49.6156 14.817C49.749 14.7637 49.9623 14.577 50.2556 14.257C50.549 13.937 50.7756 13.697 50.9356 13.537C51.069 13.457 51.109 13.457 51.0556 13.537C51.029 13.617 51.069 13.6037 51.1756 13.497L52.1756 12.217L52.2156 12.177C52.0823 12.097 52.0156 11.8837 52.0156 11.537C52.0156 11.2703 52.069 11.057 52.1756 10.897C52.1756 10.8703 52.2023 10.857 52.2556 10.857L53.0956 10.617C53.1756 10.617 53.229 10.6037 53.2556 10.577C53.309 10.5237 53.3623 10.457 53.4156 10.377C53.4956 10.2703 53.589 10.137 53.6956 9.977L54.1756 9.337L54.4956 8.897C54.4956 8.817 54.549 8.72367 54.6556 8.617C54.789 8.48367 54.8956 8.39033 54.9756 8.337C55.0823 8.177 55.149 8.057 55.1756 7.977C55.229 7.87033 55.309 7.737 55.4156 7.577C55.4156 7.55033 55.4556 7.537 55.5356 7.537C55.6156 7.51033 55.6556 7.48367 55.6556 7.457C55.6823 7.19033 55.7223 7.07033 55.7756 7.097C55.8556 7.097 55.8956 7.057 55.8956 6.977C55.8956 6.897 55.949 6.83033 56.0556 6.777L56.2556 6.537C56.2556 6.51033 56.2956 6.457 56.3756 6.377V6.337C56.3756 6.28367 56.3756 6.217 56.3756 6.137C56.3756 6.057 56.4023 5.977 56.4556 5.897C56.509 5.84367 56.549 5.817 56.5756 5.817C56.6023 5.817 56.6156 5.817 56.6156 5.817C56.6156 5.79033 56.6023 5.777 56.5756 5.777C56.5756 5.75033 56.5756 5.737 56.5756 5.737C56.5756 5.63033 56.629 5.56367 56.7356 5.537C56.8423 5.51033 56.8956 5.47033 56.8956 5.417C56.949 5.04367 57.269 4.76367 57.8556 4.577C58.4423 4.39033 58.9623 4.297 59.4156 4.297C59.869 4.297 60.0956 4.36367 60.0956 4.497C60.0956 4.55033 60.0156 4.64367 59.8556 4.777C59.7756 4.80367 59.6423 4.92367 59.4556 5.137C59.269 5.32367 59.0956 5.55033 58.9356 5.817L58.6156 6.297C58.589 6.35033 58.549 6.417 58.4956 6.497C58.469 6.55033 58.429 6.60367 58.3756 6.657C58.189 6.977 57.9356 7.43033 57.6156 8.017C57.3223 8.577 57.0023 9.20367 56.6556 9.897L57.6956 9.777C57.7756 9.777 57.8023 9.79033 57.7756 9.817C57.7756 9.84367 57.8156 9.84367 57.8956 9.817C58.029 9.817 58.1223 9.80367 58.1756 9.777C58.229 9.72367 58.3223 9.68367 58.4556 9.657C58.669 9.63033 58.909 9.617 59.1756 9.617C59.469 9.59033 59.6956 9.577 59.8556 9.577C59.9623 9.577 60.0956 9.577 60.2556 9.577C60.4156 9.577 60.5356 9.59033 60.6156 9.617C60.669 9.617 60.6823 9.64367 60.6556 9.697C60.6556 9.72367 60.669 9.737 60.6956 9.737C60.749 9.737 60.789 9.72367 60.8156 9.697C60.869 9.67033 60.9223 9.657 60.9756 9.657C61.0023 9.63033 61.0423 9.63033 61.0956 9.657C61.1756 9.657 61.229 9.657 61.2556 9.657L61.6556 9.777C61.8156 9.80367 61.8956 9.897 61.8956 10.057C61.9223 10.217 61.8556 10.2703 61.6956 10.217C61.589 10.1637 61.4956 10.137 61.4156 10.137H60.4156C60.229 10.137 60.0556 10.137 59.8956 10.137C59.7356 10.137 59.5756 10.1503 59.4156 10.177C59.3623 10.2037 59.3356 10.177 59.3356 10.097C59.3623 10.017 59.349 9.977 59.2956 9.977C59.269 9.977 59.229 10.017 59.1756 10.097C59.1223 10.1503 59.0823 10.177 59.0556 10.177L58.8556 10.297C58.429 10.4037 57.9756 10.5237 57.4956 10.657C57.0156 10.7637 56.549 10.8837 56.0956 11.017C55.6956 11.8437 55.309 12.6303 54.9356 13.377C54.589 14.097 54.3223 14.657 54.1356 15.057C54.0823 15.217 54.0556 15.3103 54.0556 15.337C54.0556 15.5503 54.1756 15.657 54.4156 15.657C54.5756 15.657 54.7356 15.617 54.8956 15.537L55.2956 15.377C55.9356 14.7903 56.6023 14.297 57.2956 13.897C57.3223 13.897 57.3356 13.897 57.3356 13.897C57.3623 13.8703 57.389 13.857 57.4156 13.857C57.4956 13.857 57.549 13.9103 57.5756 14.017C57.6023 14.097 57.5756 14.1637 57.4956 14.217C56.7223 14.6437 56.0023 15.1903 55.3356 15.857C55.309 15.9103 55.2823 15.9637 55.2556 16.017C55.229 16.0703 55.189 16.1237 55.1356 16.177C55.0823 16.2303 55.0023 16.3237 54.8956 16.457C54.8156 16.5903 54.7756 16.6703 54.7756 16.697C54.749 16.777 54.709 16.8037 54.6556 16.777C54.629 16.7503 54.549 16.7903 54.4156 16.897C54.389 16.9237 54.3623 16.977 54.3356 17.057C54.3356 17.137 54.3223 17.2037 54.2956 17.257C54.2423 17.337 54.189 17.4037 54.1356 17.457C54.0823 17.4837 54.0556 17.5103 54.0556 17.537C54.029 17.6437 53.9756 17.7103 53.8956 17.737C53.8423 17.737 53.789 17.7637 53.7356 17.817C53.709 17.817 53.6956 17.8303 53.6956 17.857C53.6956 18.097 53.669 18.2037 53.6156 18.177C53.5623 18.1503 53.5223 18.177 53.4956 18.257C53.389 18.3637 53.309 18.417 53.2556 18.417C53.0956 18.4703 53.029 18.5103 53.0556 18.537C53.109 18.5637 53.149 18.5903 53.1756 18.617C53.229 18.617 53.189 18.657 53.0556 18.737C53.0023 18.7637 52.949 18.8437 52.8956 18.977C52.8423 19.0837 52.789 19.1637 52.7356 19.217C52.6556 19.2703 52.5756 19.3103 52.4956 19.337C52.4156 19.3637 52.349 19.417 52.2956 19.497C52.0556 19.737 51.8556 19.857 51.6956 19.857ZM53.9756 10.457C54.0823 10.4303 54.1756 10.4037 54.2556 10.377C54.3623 10.3503 54.469 10.3103 54.5756 10.257L55.7756 10.057C56.0956 9.417 56.3756 8.84367 56.6156 8.337C56.8556 7.80367 57.029 7.417 57.1356 7.177C57.1356 7.177 57.109 7.16367 57.0556 7.137C57.029 7.08367 57.0156 7.03033 57.0156 6.977C56.9623 6.95033 56.8956 6.91033 56.8156 6.857C56.7623 6.80367 56.709 6.76367 56.6556 6.737L56.2956 7.097L55.8556 7.697C55.8556 7.72367 55.8156 7.75033 55.7356 7.777C55.6823 7.777 55.6556 7.79033 55.6556 7.817C55.6556 7.897 55.6156 7.977 55.5356 8.057C55.4823 8.137 55.429 8.16367 55.3756 8.137L55.2156 8.537C55.2156 8.617 55.1756 8.68367 55.0956 8.737L54.8156 9.097C54.8156 9.12367 54.8023 9.15033 54.7756 9.177C54.7756 9.177 54.7756 9.20367 54.7756 9.257C54.749 9.31033 54.709 9.377 54.6556 9.457C54.6023 9.537 54.5356 9.617 54.4556 9.697C54.429 9.697 54.4156 9.71033 54.4156 9.737C54.4156 9.737 54.4023 9.737 54.3756 9.737L54.2556 9.977C54.149 10.0303 54.0823 10.057 54.0556 10.057L54.0156 10.137C54.0156 10.297 54.0023 10.4037 53.9756 10.457ZM65.4781 7.257C65.3981 7.257 65.3181 7.23033 65.2381 7.177C65.1848 7.12367 65.1048 7.057 64.9981 6.977C64.9448 6.95033 64.8781 6.92367 64.7981 6.897C64.7448 6.84367 64.7181 6.76367 64.7181 6.657C64.6915 6.63033 64.6381 6.617 64.5581 6.617C64.4248 6.617 64.3581 6.52367 64.3581 6.337C64.3581 6.12367 64.4648 5.977 64.6781 5.897L64.8781 5.737V5.777L65.0381 5.577H65.1181C65.2781 5.577 65.3848 5.497 65.4381 5.337C65.5181 5.177 65.6781 5.07033 65.9181 5.017C66.0781 4.96367 66.2115 4.977 66.3181 5.057C66.4248 5.137 66.5581 5.177 66.7181 5.177C66.8781 5.177 67.0515 5.12367 67.2381 5.017L67.8381 4.897C67.9181 4.897 67.9581 4.92367 67.9581 4.977C67.9581 5.03033 67.8781 5.097 67.7181 5.177C67.5848 5.257 67.4915 5.32366 67.4381 5.377L67.3981 5.417L67.3581 5.497L67.1981 5.697C67.0381 5.88367 66.8515 6.11033 66.6381 6.377C66.4515 6.617 66.2515 6.817 66.0381 6.977C65.7981 7.16367 65.6115 7.257 65.4781 7.257ZM59.3981 19.857C59.2381 19.857 59.1581 19.7637 59.1581 19.577C59.1581 19.4437 59.1981 19.2837 59.2781 19.097C59.4915 18.6437 59.7315 18.0037 59.9981 17.177C60.2915 16.3503 60.6515 15.6437 61.0781 15.057C61.3715 14.4703 61.6381 13.897 61.8781 13.337C62.1448 12.7503 62.3981 12.1637 62.6381 11.577C62.6381 11.577 62.6115 11.5637 62.5581 11.537C62.5315 11.4837 62.5181 11.4303 62.5181 11.377C62.3581 11.2703 62.1848 11.1237 61.9981 10.937C61.8381 10.7237 61.8248 10.5103 61.9581 10.297C62.0115 10.2437 62.0515 10.217 62.0781 10.217C62.1048 10.217 62.1181 10.217 62.1181 10.217C62.1181 10.1903 62.1048 10.177 62.0781 10.177C62.0781 10.1503 62.0781 10.137 62.0781 10.137C62.0781 10.0303 62.1315 9.96367 62.2381 9.937C62.3448 9.91033 62.3981 9.87033 62.3981 9.817C62.4515 9.44367 62.7715 9.16367 63.3581 8.977C63.9448 8.79033 64.4648 8.697 64.9181 8.697C65.3715 8.697 65.5981 8.76367 65.5981 8.897C65.5981 8.95033 65.5181 9.04367 65.3581 9.177C65.2781 9.23033 65.1448 9.35033 64.9581 9.537C64.7715 9.72367 64.5981 9.95033 64.4381 10.217L64.1181 10.697C64.0915 10.7503 64.0515 10.817 63.9981 10.897C63.9715 10.9503 63.9315 11.0037 63.8781 11.057C63.4515 11.8303 63.1048 12.4837 62.8381 13.017C62.5715 13.5503 62.2515 14.2303 61.8781 15.057C61.8248 15.217 61.7981 15.3237 61.7981 15.377C61.7981 15.5637 61.9048 15.657 62.1181 15.657C62.2781 15.657 62.4381 15.617 62.5981 15.537L62.9981 15.377C63.6381 14.7903 64.3048 14.297 64.9981 13.897C65.0248 13.897 65.0381 13.897 65.0381 13.897C65.0648 13.8703 65.0915 13.857 65.1181 13.857C65.1981 13.857 65.2515 13.9103 65.2781 14.017C65.3048 14.097 65.2781 14.1637 65.1981 14.217C64.4248 14.6437 63.7048 15.1903 63.0381 15.857C63.0115 15.9103 62.9848 15.9637 62.9581 16.017C62.9315 16.0703 62.8915 16.1237 62.8381 16.177C62.7848 16.2303 62.7048 16.3237 62.5981 16.457C62.5181 16.5903 62.4781 16.6703 62.4781 16.697C62.4515 16.777 62.4115 16.8037 62.3581 16.777C62.3315 16.7503 62.2515 16.7903 62.1181 16.897C62.0915 16.9237 62.0648 16.977 62.0381 17.057C62.0381 17.137 62.0248 17.2037 61.9981 17.257C61.9715 17.337 61.9181 17.4037 61.8381 17.457C61.7848 17.4837 61.7581 17.5103 61.7581 17.537C61.7315 17.6437 61.6781 17.7103 61.5981 17.737C61.5448 17.737 61.4915 17.7637 61.4381 17.817C61.4115 17.8437 61.4115 17.8837 61.4381 17.937C61.4648 17.9903 61.4515 18.0437 61.3981 18.097C61.3715 18.177 61.3448 18.217 61.3181 18.217C61.2915 18.1903 61.2515 18.2037 61.1981 18.257C61.0915 18.3637 61.0115 18.417 60.9581 18.417C60.7981 18.4703 60.7315 18.5103 60.7581 18.537C60.8115 18.5637 60.8515 18.5903 60.8781 18.617C60.9315 18.617 60.8915 18.657 60.7581 18.737C60.7048 18.7637 60.6515 18.8437 60.5981 18.977C60.5448 19.0837 60.4915 19.1637 60.4381 19.217C60.3581 19.2703 60.2781 19.3103 60.1981 19.337C60.1448 19.3637 60.0781 19.417 59.9981 19.497C59.7581 19.737 59.5581 19.857 59.3981 19.857ZM65.9978 19.857C65.8378 19.857 65.7578 19.7637 65.7578 19.577C65.7578 19.4437 65.7978 19.2837 65.8778 19.097C66.0911 18.6437 66.3445 18.0037 66.6378 17.177C66.9311 16.3503 67.2911 15.6437 67.7178 15.057L69.2778 11.577C69.2778 11.577 69.2511 11.5637 69.1978 11.537C69.1445 11.4837 69.1178 11.4303 69.1178 11.377C68.9578 11.2703 68.7845 11.1237 68.5978 10.937C68.4378 10.7237 68.4245 10.5103 68.5578 10.297C68.6111 10.2437 68.6511 10.217 68.6778 10.217C68.7045 10.217 68.7178 10.217 68.7178 10.217V10.137C68.7178 10.0303 68.7578 9.96367 68.8378 9.937C68.9445 9.91033 69.0111 9.87033 69.0378 9.817C69.0911 9.44367 69.3978 9.16367 69.9578 8.977C70.5445 8.79033 71.0645 8.697 71.5178 8.697C71.9711 8.697 72.1978 8.76367 72.1978 8.897C72.1978 8.977 72.1178 9.07033 71.9578 9.177C71.9045 9.23033 71.7711 9.35033 71.5578 9.537C71.3711 9.72367 71.1978 9.95033 71.0378 10.217L70.7578 10.697L70.4778 11.057C70.0511 11.8303 69.7045 12.4837 69.4378 13.017C69.1711 13.5503 68.8511 14.2303 68.4778 15.057C68.3978 15.217 68.3578 15.3503 68.3578 15.457C68.3578 15.5903 68.4111 15.657 68.5178 15.657C68.5711 15.657 68.6245 15.6437 68.6778 15.617C68.7578 15.5637 68.8378 15.5237 68.9178 15.497C69.1311 15.3637 69.3045 15.2437 69.4378 15.137C69.5978 15.0037 69.7711 14.8703 69.9578 14.737C70.0378 14.657 70.1045 14.657 70.1578 14.737C70.2111 14.7903 70.2111 14.8703 70.1578 14.977C70.0511 15.1903 69.9711 15.3237 69.9178 15.377C69.8911 15.4037 69.8511 15.4303 69.7978 15.457C69.7445 15.4837 69.6245 15.6037 69.4378 15.817L69.2778 16.137C69.2245 16.1903 69.1578 16.297 69.0778 16.457C69.0245 16.5903 68.9978 16.6703 68.9978 16.697C68.9978 16.7503 68.9711 16.777 68.9178 16.777C68.8645 16.7503 68.7845 16.7903 68.6778 16.897C68.6511 16.9237 68.6378 16.977 68.6378 17.057C68.6645 17.137 68.6511 17.2037 68.5978 17.257C68.5711 17.337 68.5311 17.4037 68.4778 17.457C68.4245 17.4837 68.3978 17.5103 68.3978 17.537C68.3711 17.6437 68.3178 17.7103 68.2378 17.737C68.1845 17.737 68.1311 17.7637 68.0778 17.817C68.0511 17.817 68.0378 17.8437 68.0378 17.897C68.0378 18.1103 68.0111 18.2037 67.9578 18.177C67.9045 18.1503 67.8511 18.177 67.7978 18.257C67.7445 18.3637 67.6778 18.417 67.5978 18.417C67.4378 18.4703 67.3711 18.5103 67.3978 18.537C67.4245 18.5637 67.4645 18.5903 67.5178 18.617C67.5711 18.617 67.5311 18.657 67.3978 18.737C67.3178 18.7637 67.2511 18.8437 67.1978 18.977C67.1445 19.0837 67.0911 19.1637 67.0378 19.217C66.9845 19.2703 66.9178 19.3103 66.8378 19.337C66.7578 19.3637 66.6911 19.417 66.6378 19.497C66.3978 19.737 66.1845 19.857 65.9978 19.857ZM77.9178 19.537C77.8111 19.537 77.7178 19.537 77.6378 19.537C77.5578 19.5103 77.4778 19.4837 77.3978 19.457C77.1311 19.4037 76.8911 19.3237 76.6778 19.217C76.4911 19.1103 76.3311 18.9103 76.1978 18.617C76.1711 18.4837 76.1045 18.3103 75.9978 18.097C75.9178 17.8837 75.8645 17.6837 75.8378 17.497C75.8111 17.3637 75.7978 17.2037 75.7978 17.017C75.7711 16.8837 75.7578 16.7103 75.7578 16.497C75.7045 16.2303 75.6778 15.9903 75.6778 15.777C75.7045 15.5637 75.7178 15.3103 75.7178 15.017C75.7178 14.7237 75.7311 14.5103 75.7578 14.377C75.8111 14.137 75.8378 14.017 75.8378 14.017C75.8378 13.9903 75.8378 13.857 75.8378 13.617C75.8645 13.297 75.8778 12.9637 75.8778 12.617C75.8778 12.2703 75.8911 11.9903 75.9178 11.777C75.9978 10.977 75.8378 10.577 75.4378 10.577C75.2778 10.577 75.0645 10.6437 74.7978 10.777C74.7711 10.857 74.7178 10.9103 74.6378 10.937C74.5845 10.937 74.5045 10.9637 74.3978 11.017L74.1978 11.137C74.1978 11.1637 74.1711 11.177 74.1178 11.177C74.0645 11.1503 74.0378 11.1637 74.0378 11.217C74.0645 11.3237 74.0511 11.3903 73.9978 11.417C73.9711 11.4437 73.9311 11.4303 73.8778 11.377L73.4378 11.697C73.4378 11.7237 73.3978 11.777 73.3178 11.857L73.2778 11.897C73.1711 12.0037 73.0778 12.057 72.9978 12.057L72.8778 12.177C72.8778 12.2037 72.8511 12.257 72.7978 12.337C72.7711 12.3903 72.7045 12.4037 72.5978 12.377L72.3978 12.577C72.2911 12.737 72.1978 12.8303 72.1178 12.857C72.0645 12.8837 71.9978 12.9103 71.9178 12.937L71.5978 13.337L71.4378 13.377C71.4378 13.4837 71.3178 13.6437 71.0778 13.857C70.8645 14.0703 70.7178 14.217 70.6378 14.297C70.5578 14.377 70.4778 14.417 70.3978 14.417C70.3445 14.417 70.3178 14.3903 70.3178 14.337C70.3178 14.3103 70.3845 14.2037 70.5178 14.017C70.6245 13.9103 70.7845 13.7103 70.9978 13.417C71.2378 13.1237 71.3711 12.9903 71.3978 13.017C71.5311 12.8837 71.6245 12.7503 71.6778 12.617C71.7311 12.457 71.8245 12.3237 71.9578 12.217C71.9578 12.2437 71.9578 12.2703 71.9578 12.297C71.9845 12.297 71.9978 12.297 71.9978 12.297C72.0511 12.297 72.1178 12.2303 72.1978 12.097C72.2778 11.937 72.3311 11.8703 72.3578 11.897L73.0378 11.297C73.0378 11.2703 73.1045 11.217 73.2378 11.137C73.3445 11.0837 73.4111 11.057 73.4378 11.057C73.4645 11.057 73.5311 10.977 73.6378 10.817L73.9178 10.617C73.9445 10.5637 73.9711 10.577 73.9978 10.657C74.0511 10.7103 74.0911 10.7237 74.1178 10.697L74.2378 10.417C74.2911 10.337 74.3711 10.2703 74.4778 10.217C74.6111 10.137 74.7445 10.057 74.8778 9.977C75.1978 9.657 75.4378 9.497 75.5978 9.497H75.7578C76.1045 9.36367 76.4245 9.297 76.7178 9.297C77.1445 9.297 77.4778 9.457 77.7178 9.777C77.7711 9.857 77.8245 10.0037 77.8778 10.217C77.9311 10.2437 77.9445 10.2837 77.9178 10.337C77.9178 10.3637 77.9311 10.4037 77.9578 10.457C77.9845 10.5103 78.0378 10.577 78.1178 10.657C78.1978 10.7103 78.2378 10.777 78.2378 10.857V10.937C78.2378 11.0437 78.1711 11.137 78.0378 11.217C78.1711 11.3237 78.2245 11.3903 78.1978 11.417C78.1978 11.417 78.1845 11.457 78.1578 11.537L78.0778 12.097C78.0511 12.2837 78.0111 12.4303 77.9578 12.537C77.9045 12.617 77.8511 12.7637 77.7978 12.977C77.9045 13.137 77.9045 13.2437 77.7978 13.297H77.7178L77.6778 13.457C77.6778 13.5103 77.7045 13.5637 77.7578 13.617L77.6378 13.857C77.6645 13.8303 77.6778 13.8303 77.6778 13.857C77.7045 13.857 77.7178 13.857 77.7178 13.857C77.6911 13.9103 77.6511 14.017 77.5978 14.177C77.5445 14.3103 77.5045 14.417 77.4778 14.497C77.4511 14.6303 77.3978 14.697 77.3178 14.697C77.2378 14.697 77.2111 14.7637 77.2378 14.897C77.2645 14.9237 77.2778 15.017 77.2778 15.177C77.3045 15.3103 77.2911 15.377 77.2378 15.377L77.1578 15.857V15.977C77.1578 16.1103 77.1311 16.2437 77.0778 16.377C77.0511 16.5103 77.0245 16.6437 76.9978 16.777C76.9711 16.9103 76.9445 17.057 76.9178 17.217C76.9178 17.3503 76.9178 17.4837 76.9178 17.617C76.9178 17.7237 76.9178 17.8437 76.9178 17.977C76.9445 18.0837 76.9711 18.1903 76.9978 18.297C76.9978 18.3237 77.0378 18.4037 77.1178 18.537C77.1978 18.6703 77.2378 18.7503 77.2378 18.777L77.3578 18.897C77.4111 18.9237 77.4911 18.9237 77.5978 18.897C77.7311 18.8703 77.8245 18.8837 77.8778 18.937C78.1178 18.9637 78.4245 18.8437 78.7978 18.577C79.1978 18.2837 79.5578 17.9637 79.8778 17.617C79.9578 17.537 80.0378 17.497 80.1178 17.497C80.1711 17.497 80.2111 17.537 80.2378 17.617C80.2645 17.697 80.2378 17.8037 80.1578 17.937C79.7311 18.5503 79.3311 18.977 78.9578 19.217C78.5845 19.4303 78.2378 19.537 77.9178 19.537ZM76.8397 31.097C76.4397 31.097 76.093 31.057 75.7997 30.977C75.613 30.9237 75.4264 30.857 75.2397 30.777C75.053 30.697 74.853 30.6037 74.6397 30.497L74.5597 30.457C74.453 30.4037 74.333 30.3237 74.1997 30.217C74.0664 30.137 73.933 30.0703 73.7997 30.017C73.693 29.9903 73.5464 29.9103 73.3597 29.777C73.2264 29.6703 73.1464 29.5637 73.1197 29.457C73.0664 29.3503 73.0797 29.2837 73.1597 29.257C73.1864 29.257 73.2264 29.2703 73.2797 29.297C73.333 29.3503 73.3864 29.3903 73.4397 29.417C73.493 29.4437 73.5597 29.4837 73.6397 29.537C73.693 29.5903 73.7464 29.6303 73.7997 29.657C73.933 29.7103 74.053 29.7503 74.1597 29.777C74.2397 29.8303 74.333 29.8837 74.4397 29.937C74.6797 30.0437 74.853 30.1103 74.9597 30.137C75.0664 30.1637 75.2264 30.1903 75.4397 30.217L75.9597 30.257C77.373 30.3637 78.5597 30.097 79.5197 29.457C80.453 28.817 81.2397 28.137 81.8797 27.417C81.9597 27.2037 82.0397 27.0037 82.1197 26.817C82.2264 26.657 82.333 26.5237 82.4397 26.417C82.4664 26.3903 82.493 26.4037 82.5197 26.457C82.573 26.537 82.613 26.5637 82.6397 26.537C82.693 26.457 82.7197 26.3237 82.7197 26.137C82.7464 25.977 82.7997 25.857 82.8797 25.777C82.9064 25.7503 82.933 25.777 82.9597 25.857C83.013 25.937 83.053 25.9637 83.0797 25.937C83.133 25.8837 83.1597 25.777 83.1597 25.617C83.1864 25.457 83.213 25.3637 83.2397 25.337C83.5064 24.9637 83.7464 24.617 83.9597 24.297C84.173 23.977 84.413 23.5903 84.6797 23.137C84.9197 22.7637 85.1997 22.2837 85.5197 21.697C85.8664 21.137 86.173 20.617 86.4397 20.137C86.7064 19.7103 86.9064 19.257 87.0397 18.777L87.1597 18.337C87.293 17.8303 87.5597 17.137 87.9597 16.257C88.3864 15.3503 88.8797 14.377 89.4397 13.337C90.0264 12.2703 90.613 11.257 91.1997 10.297C91.333 10.137 91.4397 10.0037 91.5197 9.897C91.5997 9.79033 91.7197 9.657 91.8797 9.497C91.933 9.47033 92.0397 9.35033 92.1997 9.137C92.3597 8.92367 92.5197 8.71033 92.6797 8.497C92.8664 8.257 92.973 8.12367 92.9997 8.097C93.773 7.457 94.6264 6.95033 95.5597 6.577C96.5197 6.177 97.2664 5.977 97.7997 5.977C98.013 5.977 98.1597 5.977 98.2397 5.977C98.3464 5.95033 98.4797 5.95033 98.6397 5.977L98.9197 6.017C99.0264 6.04367 99.1197 6.08367 99.1997 6.137C99.3064 6.16367 99.413 6.19033 99.5197 6.217C99.573 6.24367 99.6397 6.28367 99.7197 6.337C99.7997 6.39033 99.8664 6.43033 99.9197 6.457C100.026 6.537 100.08 6.63033 100.08 6.737C100.08 6.817 100.053 6.87033 99.9997 6.897C99.973 6.92367 99.933 6.92367 99.8797 6.897C99.853 6.84367 99.813 6.817 99.7597 6.817C99.7064 6.817 99.653 6.80367 99.5997 6.777C99.5464 6.75033 99.493 6.72367 99.4397 6.697C99.333 6.697 99.2397 6.68367 99.1597 6.657C99.0797 6.63033 98.9997 6.60367 98.9197 6.577C98.813 6.55033 98.7197 6.537 98.6397 6.537C98.5597 6.537 98.493 6.537 98.4397 6.537C98.333 6.537 98.2264 6.55033 98.1197 6.577C98.093 6.577 98.013 6.59033 97.8797 6.617C97.773 6.617 97.693 6.63033 97.6397 6.657C96.413 6.95033 95.413 7.51033 94.6397 8.337C93.8664 9.16367 93.173 10.0037 92.5597 10.857C92.453 10.9903 92.3064 11.1637 92.1197 11.377C91.9597 11.5637 91.853 11.6837 91.7997 11.737C91.773 11.7903 91.653 11.977 91.4397 12.297C91.2264 12.5903 91.013 12.897 90.7997 13.217C90.613 13.5103 90.5064 13.6703 90.4797 13.697C90.453 13.7237 90.3997 13.737 90.3197 13.737C90.2664 13.737 90.2264 13.7503 90.1997 13.777L89.2397 15.697L88.8397 16.457L88.3197 17.497C88.053 18.0037 87.813 18.5237 87.5997 19.057C87.3864 19.5637 87.213 20.057 87.0797 20.537C86.9997 20.7237 86.9597 20.937 86.9597 21.177C86.9597 21.417 86.893 21.5637 86.7597 21.617C86.6797 21.6437 86.613 21.6037 86.5597 21.497C86.5064 21.3903 86.4797 21.4837 86.4797 21.777C86.533 21.8037 86.533 21.857 86.4797 21.937C86.453 22.017 86.4397 22.0837 86.4397 22.137C86.4664 22.1903 86.4797 22.2703 86.4797 22.377C86.4797 22.5103 86.4264 22.6303 86.3197 22.737C86.2397 22.8437 86.173 22.9637 86.1197 23.097C86.0664 23.2037 85.9997 23.2303 85.9197 23.177C85.8397 23.1503 85.773 23.137 85.7197 23.137L85.6797 23.217C85.6797 23.297 85.7197 23.4837 85.7997 23.777C85.7997 23.937 85.7197 24.017 85.5597 24.017H85.4397C85.413 24.577 85.3064 24.9103 85.1197 25.017L84.8397 25.217L84.7597 25.377C84.5997 25.697 84.4797 25.8437 84.3997 25.817L84.2797 26.137C84.253 26.217 84.1864 26.2837 84.0797 26.337C83.9997 26.3903 83.933 26.457 83.8797 26.537C83.8797 26.5637 83.8664 26.577 83.8397 26.577C83.8397 26.577 83.8397 26.5903 83.8397 26.617C83.8397 26.937 83.693 27.257 83.3997 27.577C83.133 27.897 82.853 28.177 82.5597 28.417C82.5064 28.5237 82.4397 28.6303 82.3597 28.737C82.2797 28.8437 82.1864 28.937 82.0797 29.017C81.9464 29.1503 81.7864 29.2303 81.5997 29.257C81.4397 29.2837 81.2797 29.3637 81.1197 29.497C81.0664 29.5237 81.0397 29.5903 81.0397 29.697C81.0664 29.8303 81.053 29.9103 80.9997 29.937C80.413 30.3103 79.733 30.5903 78.9597 30.777C78.1864 30.9903 77.4797 31.097 76.8397 31.097ZM83.5197 19.697C83.173 19.697 82.8797 19.497 82.6397 19.097C82.3997 18.6703 82.333 18.3503 82.4397 18.137C82.4664 18.0837 82.493 18.017 82.5197 17.937C82.573 17.8303 82.613 17.7637 82.6397 17.737C82.693 17.6837 82.7197 17.6703 82.7197 17.697C82.7464 17.697 82.773 17.6837 82.7997 17.657C82.8264 17.6037 82.813 17.5637 82.7597 17.537C82.733 17.4837 82.733 17.4437 82.7597 17.417L83.2397 15.617C83.2397 15.5903 83.253 15.5637 83.2797 15.537C83.3064 15.5103 83.3197 15.4837 83.3197 15.457L83.3997 14.737C83.3997 14.7103 83.4264 14.7103 83.4797 14.737C83.533 14.737 83.573 14.7237 83.5997 14.697C83.653 14.5637 83.6397 14.497 83.5597 14.497C83.4797 14.497 83.4397 14.4837 83.4397 14.457C83.4664 14.2437 83.5064 14.097 83.5597 14.017C83.613 13.937 83.653 13.8037 83.6797 13.617L83.7997 12.937C83.7997 12.9637 83.813 13.0703 83.8397 13.257C83.8664 13.417 83.933 13.497 84.0397 13.497C84.173 13.497 84.213 13.4703 84.1597 13.417C84.1064 13.3637 84.0664 13.297 84.0397 13.217C84.013 13.0837 84.0397 12.977 84.1197 12.897C84.1464 12.8703 84.1997 12.9237 84.2797 13.057C84.3597 13.1637 84.3997 13.217 84.3997 13.217C84.4264 13.1637 84.4397 13.097 84.4397 13.017C84.4397 12.937 84.413 12.8837 84.3597 12.857C84.253 12.777 84.133 12.7237 83.9997 12.697C83.893 12.6437 83.8397 12.5903 83.8397 12.537C83.8397 12.457 83.853 12.377 83.8797 12.297C83.8797 12.2703 83.893 12.2437 83.9197 12.217C83.9464 12.1903 83.9597 12.1637 83.9597 12.137C83.9597 12.0837 83.933 12.057 83.8797 12.057C83.853 12.057 83.8397 12.0437 83.8397 12.017V11.617C83.8397 11.537 83.8397 11.457 83.8397 11.377C83.8397 11.2703 83.813 11.1637 83.7597 11.057C83.6797 10.8703 83.5597 10.7103 83.3997 10.577C83.2397 10.4437 83.0397 10.377 82.7997 10.377H82.7597L82.6797 10.457H82.5997C82.413 10.5903 82.1997 10.7237 81.9597 10.857C81.7464 10.9637 81.5597 11.0437 81.3997 11.097L81.3197 11.137C81.293 11.1637 81.253 11.177 81.1997 11.177C81.093 11.177 81.013 11.1237 80.9597 11.017C80.933 10.9103 80.973 10.8437 81.0797 10.817C81.293 10.6837 81.5197 10.577 81.7597 10.497C81.9997 10.417 82.213 10.297 82.3997 10.137C82.453 10.0037 82.5864 9.897 82.7997 9.817C82.853 9.76367 82.893 9.75033 82.9197 9.777C82.9464 9.80367 82.973 9.817 82.9997 9.817C83.133 9.817 83.213 9.777 83.2397 9.697C83.293 9.59033 83.333 9.56367 83.3597 9.617H83.7597C84.3464 9.617 84.7997 9.857 85.1197 10.337C85.4397 10.7903 85.5864 11.4037 85.5597 12.177C85.5597 12.2037 85.5197 12.2437 85.4397 12.297C85.3864 12.3237 85.3597 12.3637 85.3597 12.417C85.3597 12.4437 85.3864 12.457 85.4397 12.457C85.5197 12.4303 85.5597 12.4437 85.5597 12.497V12.657C85.5597 12.897 85.5464 13.0303 85.5197 13.057C85.4664 13.6437 85.333 14.257 85.1197 14.897C84.933 15.5103 84.733 16.1103 84.5197 16.697C84.4397 16.697 84.3864 16.737 84.3597 16.817C84.333 16.897 84.293 16.937 84.2397 16.937C84.1597 16.937 84.0797 16.9103 83.9997 16.857C83.9464 16.777 83.9197 16.777 83.9197 16.857C83.9197 16.9637 83.973 17.0437 84.0797 17.097C84.1864 17.1237 84.253 17.1503 84.2797 17.177C84.3064 17.2037 84.3597 17.217 84.4397 17.217C84.5197 17.217 84.5997 17.1903 84.6797 17.137C84.7597 17.0837 84.8397 17.0303 84.9197 16.977C85.053 16.8703 85.2264 16.7237 85.4397 16.537C85.6797 16.3237 85.893 16.137 86.0797 15.977C86.2664 15.7903 86.3597 15.697 86.3597 15.697C86.3064 15.6437 86.3464 15.5903 86.4797 15.537L86.6797 15.297C86.7064 15.1637 86.7864 15.017 86.9197 14.857C87.053 14.697 87.173 14.6037 87.2797 14.577L87.3597 14.417C87.3864 14.417 87.413 14.4303 87.4397 14.457C87.4664 14.457 87.493 14.4437 87.5197 14.417C87.5464 14.417 87.5464 14.3903 87.5197 14.337C87.5197 14.2837 87.533 14.257 87.5597 14.257L87.7597 13.977C87.813 13.817 87.8664 13.7237 87.9197 13.697C87.893 13.617 87.9197 13.5637 87.9997 13.537C88.053 13.537 88.1064 13.5503 88.1597 13.577C88.2397 13.577 88.2797 13.5237 88.2797 13.417C88.2797 13.3637 88.293 13.297 88.3197 13.217C88.3464 13.1103 88.413 13.0703 88.5197 13.097L88.5597 13.017C88.5597 12.9903 88.613 12.9503 88.7197 12.897C88.8264 12.817 88.893 12.7637 88.9197 12.737L89.1197 12.457C89.1997 12.3237 89.2797 12.257 89.3597 12.257C89.4397 12.2303 89.493 12.217 89.5197 12.217C89.5464 12.217 89.5597 12.2437 89.5597 12.297C89.5597 12.4837 89.4664 12.6703 89.2797 12.857L88.9597 13.217C88.933 13.2437 88.9064 13.257 88.8797 13.257C88.853 13.257 88.8264 13.2837 88.7997 13.337C88.773 13.3637 88.7464 13.4037 88.7197 13.457C88.693 13.5103 88.6664 13.5637 88.6397 13.617L88.3197 13.977L86.1597 16.537C85.9197 16.8037 85.7597 16.977 85.6797 17.057C85.6264 17.137 85.5464 17.257 85.4397 17.417C85.413 17.4437 85.373 17.4437 85.3197 17.417C85.2664 17.3903 85.213 17.4037 85.1597 17.457L85.1197 17.697L84.9197 17.897C84.893 17.9237 84.9064 17.937 84.9597 17.937C85.0397 17.937 85.0664 17.9503 85.0397 17.977L84.4797 18.937C84.1864 19.4437 83.8664 19.697 83.5197 19.697Z" fill="#2C302F"/>
</svg>
