<svg width="13" height="13" viewBox="0 0 13 13" fill="none" xmlns="http://www.w3.org/2000/svg">
<path d="M2.34589 1.12201C2.34589 1.38722 2.45125 1.64158 2.63878 1.82911C2.82632 2.01665 3.08067 2.12201 3.34589 2.12201L8.93589 2.12201L0.635889 10.412C0.447585 10.6003 0.341797 10.8557 0.341797 11.122C0.341797 11.3883 0.447585 11.6437 0.635889 11.832C0.824192 12.0203 1.07959 12.1261 1.34589 12.1261C1.61219 12.1261 1.86758 12.0203 2.05589 11.832L10.3459 3.53201L10.3459 9.12201C10.3459 9.38722 10.4512 9.64158 10.6388 9.82911C10.8263 10.0166 11.0807 10.122 11.3459 10.122C11.6111 10.122 11.8655 10.0166 12.053 9.82911C12.2405 9.64158 12.3459 9.38722 12.3459 9.12201L12.3459 1.12201C12.3459 0.856791 12.2405 0.602436 12.053 0.4149C11.8655 0.227364 11.6111 0.122007 11.3459 0.122007L3.34589 0.122007C3.08067 0.122007 2.82632 0.227364 2.63878 0.4149C2.45125 0.602436 2.34589 0.856791 2.34589 1.12201Z" fill="white"/>
</svg>
