<svg width="148" height="148" viewBox="0 0 148 148" fill="none" xmlns="http://www.w3.org/2000/svg">
<path d="M25.277 13.1069C25.277 16.337 26.5602 19.4348 28.8442 21.7188C31.1282 24.0028 34.226 25.2859 37.4561 25.2859L105.537 25.2859L4.45089 126.25C2.15754 128.543 0.869141 131.654 0.869141 134.897C0.869141 138.141 2.15754 141.251 4.45089 143.544C6.74425 145.838 9.85471 147.126 13.098 147.126C16.3413 147.126 19.4518 145.838 21.7451 143.544L122.709 42.4584L122.709 110.539C122.709 113.769 123.992 116.867 126.276 119.151C128.56 121.435 131.658 122.718 134.888 122.718C138.118 122.718 141.216 121.435 143.5 119.151C145.784 116.867 147.067 113.769 147.067 110.539L147.067 13.1069C147.067 9.87682 145.784 6.77902 143.5 4.49501C141.216 2.211 138.118 0.927856 134.888 0.927856L37.4561 0.927856C34.226 0.927856 31.1282 2.211 28.8442 4.49501C26.5602 6.77902 25.277 9.87682 25.277 13.1069Z" fill="white" fill-opacity="0.2"/>
</svg>
