<svg width="33" height="32" viewBox="0 0 33 32" fill="none" xmlns="http://www.w3.org/2000/svg">
<path fill-rule="evenodd" clip-rule="evenodd" d="M16.4629 20.485L27.0096 31.0317C27.5692 31.5914 28.3283 31.9058 29.1197 31.9058C29.9112 31.9058 30.6702 31.5914 31.2299 31.0317C31.7895 30.4721 32.1039 29.713 32.1039 28.9216C32.1039 28.1301 31.7895 27.3711 31.2299 26.8114L20.6792 16.2647L31.2279 5.71799C31.5048 5.44088 31.7245 5.11193 31.8744 4.74992C32.0242 4.38791 32.1013 3.99994 32.1012 3.60814C32.1011 3.21634 32.0239 2.8284 31.8738 2.46646C31.7238 2.10452 31.504 1.77568 31.2269 1.4987C30.9498 1.22172 30.6208 1.00204 30.2588 0.852192C29.8968 0.702343 29.5088 0.625264 29.117 0.625356C28.7252 0.625449 28.3373 0.70271 27.9753 0.852729C27.6134 1.00275 27.2846 1.22259 27.0076 1.4997L16.4629 12.0464L5.91613 1.4997C5.64107 1.21464 5.312 0.987219 4.9481 0.830701C4.58421 0.674184 4.19279 0.591704 3.79668 0.588077C3.40058 0.584449 3.00771 0.659745 2.64101 0.809572C2.27432 0.959399 1.94113 1.18076 1.6609 1.46073C1.38066 1.7407 1.15899 2.07367 1.00882 2.44023C0.858646 2.80679 0.782979 3.19958 0.786233 3.59569C0.789488 3.9918 0.871597 4.3833 1.02777 4.74734C1.18395 5.11138 1.41106 5.44067 1.69585 5.716L12.2466 16.2647L1.69784 26.8134C1.41305 27.0888 1.18593 27.418 1.02976 27.7821C0.873586 28.1461 0.791476 28.5376 0.788222 28.9337C0.784968 29.3298 0.860635 29.7226 1.01081 30.0892C1.16098 30.4557 1.38265 30.7887 1.66288 31.0687C1.94312 31.3487 2.27631 31.57 2.643 31.7198C3.0097 31.8697 3.40257 31.945 3.79867 31.9413C4.19478 31.9377 4.5862 31.8552 4.95009 31.6987C5.31399 31.5422 5.64306 31.3148 5.91812 31.0297L16.4629 20.485Z" fill="white"/>
</svg>
