<svg width="63" height="63" viewBox="0 0 63 63" fill="none" xmlns="http://www.w3.org/2000/svg">
<circle cx="31.4101" cy="31.1977" r="29.205" stroke="#0BD691" stroke-width="4"/>
<path d="M37.682 45.8913C37.2915 45.8913 36.9171 45.7363 36.641 45.4605C36.3649 45.1848 36.2098 44.8107 36.2098 44.4207V40.5971C36.2555 40.1572 36.2084 39.7127 36.0715 39.2922C35.9346 38.8717 35.7109 38.4846 35.4148 38.1558C35.2316 37.9573 35.1066 37.7121 35.0535 37.4473C35.0005 37.1824 35.0216 36.9081 35.1143 36.6544C35.2071 36.4007 35.368 36.1774 35.5794 36.0091C35.7909 35.8407 36.0446 35.7337 36.3129 35.6999C39.9049 35.2734 43.2173 34.1264 43.2173 27.9057C43.2184 26.744 42.8752 25.608 42.231 24.6409C41.6364 23.7506 41.4194 22.6613 41.6274 21.6114C41.7601 20.9266 41.7601 20.2227 41.6274 19.5379C40.525 19.9102 39.4871 20.4509 38.5505 21.1408C38.3735 21.2665 38.1708 21.3514 37.957 21.3895C37.7432 21.4276 37.5236 21.4181 37.3139 21.3614C34.6572 20.6115 31.8443 20.6115 29.1876 21.3614C28.9779 21.4181 28.7583 21.4276 28.5445 21.3895C28.3307 21.3514 28.128 21.2665 27.9509 21.1408C27.0087 20.4429 25.9597 19.9017 24.8447 19.5379C24.7047 20.222 24.7047 20.9273 24.8447 21.6114C25.0377 22.6745 24.8108 23.7709 24.2116 24.6703C23.5702 25.6442 23.2274 26.784 23.2253 27.9498C23.2253 33.6705 25.993 35.1999 30.1445 35.7293C30.4161 35.763 30.673 35.8717 30.8863 36.0431C31.0995 36.2146 31.2607 36.442 31.3517 36.6999C31.4372 36.9502 31.4537 37.2189 31.3993 37.4777C31.3449 37.7365 31.2216 37.9758 31.0425 38.1706C30.7562 38.4763 30.5364 38.838 30.397 39.2329C30.2577 39.6277 30.2017 40.0472 30.2328 40.4647V44.4207C30.2328 44.8107 30.0777 45.1848 29.8016 45.4605C29.5255 45.7363 29.1511 45.8913 28.7606 45.8913C28.3702 45.8913 27.9957 45.7363 27.7197 45.4605C27.4436 45.1848 27.2885 44.8107 27.2885 44.4207V43.5824C25.8419 43.7486 24.3766 43.555 23.023 43.0187C21.6694 42.4825 20.4695 41.6203 19.5302 40.5088C19.0473 39.9742 18.468 39.5352 17.8224 39.2147C17.6349 39.1664 17.4587 39.0817 17.304 38.9654C17.1492 38.8491 17.0189 38.7035 16.9205 38.5369C16.8221 38.3703 16.7575 38.186 16.7303 37.9944C16.7032 37.8029 16.7142 37.6079 16.7625 37.4205C16.8108 37.2332 16.8956 37.0572 17.012 36.9026C17.1284 36.748 17.2742 36.6179 17.441 36.5195C17.6078 36.4212 17.7923 36.3567 17.984 36.3296C18.1758 36.3025 18.371 36.3134 18.5585 36.3617C19.691 36.7738 20.7029 37.4612 21.5029 38.3617C22.975 39.8323 24.4472 41.1265 27.2443 40.5971C27.1951 39.8075 27.3104 39.0163 27.5829 38.2735C24.5502 37.5088 20.2221 35.3323 20.2221 27.9792C20.2182 26.2374 20.7304 24.5335 21.6942 23.0821C21.8733 22.8141 21.9418 22.4875 21.8856 22.1703C21.5881 20.5829 21.7569 18.9434 22.3714 17.4496C22.4549 17.2504 22.5813 17.0721 22.7416 16.9272C22.9019 16.7823 23.0922 16.6745 23.2989 16.6114C23.7994 16.4643 25.5955 16.1702 28.9962 18.3761C31.7491 17.7143 34.6199 17.7143 37.3728 18.3761C40.7735 16.1702 42.5696 16.4496 43.0554 16.6114C43.2621 16.6745 43.4524 16.7823 43.6127 16.9272C43.7729 17.0721 43.8993 17.2504 43.9828 17.4496C44.5986 18.9482 44.7674 20.5928 44.4687 22.185C44.4385 22.3284 44.4373 22.4765 44.4651 22.6204C44.493 22.7643 44.5492 22.9013 44.6306 23.0232C45.5972 24.4789 46.1096 26.1883 46.1028 27.9351C46.1028 35.3911 41.804 37.5529 38.7419 38.2294C39.0117 39.0185 39.1218 39.8533 39.0658 40.6853V44.4207C39.0665 44.7959 38.9236 45.1572 38.6663 45.4306C38.409 45.7039 38.0569 45.8688 37.682 45.8913Z" fill="#6B7280"/>
</svg>
