<svg width="64" height="64" viewBox="0 0 64 64" fill="none" xmlns="http://www.w3.org/2000/svg">
<circle cx="31.9999" cy="32.0395" r="29.205" stroke="#0BD691" stroke-width="4"/>
<path d="M43.7547 46.733H41.3009C40.5215 46.733 39.774 46.4381 39.2229 45.9133C38.6718 45.3884 38.3622 44.6765 38.3622 43.9342V36.4196C38.3753 36.1248 38.2818 35.8348 38.0972 35.5979C37.9127 35.361 37.6483 35.1916 37.3483 35.1181C37.1738 35.0928 36.9956 35.1035 36.8258 35.1493C36.656 35.1952 36.4985 35.2752 36.3639 35.384C36.2254 35.496 36.1141 35.6354 36.038 35.7925C35.9619 35.9496 35.9226 36.1206 35.9231 36.2936V43.9342C35.9231 44.6765 35.6134 45.3884 35.0623 45.9133C34.5112 46.4381 33.7637 46.733 32.9843 46.733H30.5305C29.7511 46.733 29.0036 46.4381 28.4525 45.9133C27.9014 45.3884 27.5918 44.6765 27.5918 43.9342V36.2936C27.5918 35.0991 27.8388 33.9163 28.3188 32.8127C28.7988 31.7092 29.5023 30.7064 30.3892 29.8618C31.276 29.0171 32.3289 28.3471 33.4877 27.89C34.6464 27.4329 35.8884 27.1976 37.1426 27.1976C38.3969 27.1976 39.6388 27.4329 40.7976 27.89C41.9563 28.3471 43.0092 29.0171 43.8961 29.8618C44.783 30.7064 45.4865 31.7092 45.9664 32.8127C46.4464 33.9163 46.6935 35.0991 46.6935 36.2936V43.9342C46.6935 44.6765 46.3838 45.3884 45.8327 45.9133C45.2816 46.4381 44.5341 46.733 43.7547 46.733ZM37.1426 32.3054C37.3726 32.2915 37.6033 32.2915 37.8332 32.3054C38.8197 32.4861 39.7079 32.9918 40.342 33.7339C40.976 34.476 41.3155 35.407 41.3009 36.3636V43.9342H43.7547V36.2936C43.7547 34.6235 43.0581 33.0218 41.8181 31.8408C40.5781 30.6599 38.8963 29.9964 37.1426 29.9964C35.389 29.9964 33.7072 30.6599 32.4672 31.8408C31.2271 33.0218 30.5305 34.6235 30.5305 36.2936V43.9342H32.9843V36.2936C32.9843 35.2407 33.4215 34.2305 34.2005 33.4834C34.9795 32.7362 36.0371 32.3128 37.1426 32.3054Z" fill="#6B7280"/>
<path d="M23.1841 46.7331H20.2454C19.466 46.7331 18.7185 46.4382 18.1674 45.9133C17.6163 45.3885 17.3066 44.6766 17.3066 43.9343V29.9405C17.3066 29.1982 17.6163 28.4863 18.1674 27.9615C18.7185 27.4366 19.466 27.1417 20.2454 27.1417H23.1841C23.9635 27.1417 24.7109 27.4366 25.2621 27.9615C25.8132 28.4863 26.1228 29.1982 26.1228 29.9405V43.9343C26.1228 44.6766 25.8132 45.3885 25.2621 45.9133C24.7109 46.4382 23.9635 46.7331 23.1841 46.7331ZM20.2454 29.9405V43.9343H23.1841V29.9405H20.2454Z" fill="#6B7280"/>
<path d="M21.7147 25.7422C20.8429 25.7422 19.9906 25.496 19.2657 25.0347C18.5408 24.5734 17.9758 23.9178 17.6422 23.1507C17.3086 22.3835 17.2213 21.5394 17.3913 20.7251C17.5614 19.9107 17.9813 19.1627 18.5977 18.5756C19.2142 17.9884 19.9997 17.5886 20.8547 17.4266C21.7098 17.2646 22.5961 17.3478 23.4016 17.6655C24.2071 17.9833 24.8955 18.5213 25.3799 19.2117C25.8643 19.9021 26.1228 20.7138 26.1228 21.5441C26.1228 22.6575 25.6584 23.7253 24.8317 24.5126C24.005 25.2999 22.8838 25.7422 21.7147 25.7422ZM21.7147 20.1447C21.4241 20.1447 21.14 20.2268 20.8984 20.3806C20.6568 20.5343 20.4684 20.7529 20.3572 21.0086C20.246 21.2643 20.2169 21.5456 20.2736 21.8171C20.3303 22.0886 20.4702 22.3379 20.6757 22.5336C20.8812 22.7293 21.143 22.8626 21.4281 22.9166C21.7131 22.9706 22.0085 22.9429 22.277 22.837C22.5455 22.731 22.775 22.5517 22.9364 22.3215C23.0979 22.0914 23.1841 21.8209 23.1841 21.5441C23.1841 21.173 23.0293 20.817 22.7537 20.5546C22.4782 20.2921 22.1044 20.1447 21.7147 20.1447Z" fill="#6B7280"/>
</svg>
