<svg width="21" height="21" viewBox="0 0 21 21" fill="none" xmlns="http://www.w3.org/2000/svg">
<path d="M17.7021 3.58468C16.7853 2.65861 15.6933 1.92435 14.4898 1.42473C13.2862 0.925115 11.9953 0.670141 10.6921 0.674681C5.23215 0.674681 0.782149 5.12468 0.782149 10.5847C0.782149 12.3347 1.24215 14.0347 2.10215 15.5347L0.702148 20.6747L5.95215 19.2947C7.40215 20.0847 9.03215 20.5047 10.6921 20.5047C16.1521 20.5047 20.6021 16.0547 20.6021 10.5947C20.6021 7.94468 19.5721 5.45468 17.7021 3.58468ZM10.6921 18.8247C9.21215 18.8247 7.76215 18.4247 6.49215 17.6747L6.19215 17.4947L3.07215 18.3147L3.90215 15.2747L3.70215 14.9647C2.87989 13.6516 2.44329 12.1339 2.44215 10.5847C2.44215 6.04468 6.14215 2.34468 10.6821 2.34468C12.8821 2.34468 14.9521 3.20468 16.5021 4.76468C17.2696 5.52864 17.8778 6.43734 18.2915 7.43811C18.7052 8.43887 18.9162 9.51179 18.9121 10.5947C18.9321 15.1347 15.2321 18.8247 10.6921 18.8247ZM15.2121 12.6647C14.9621 12.5447 13.7421 11.9447 13.5221 11.8547C13.2921 11.7747 13.1321 11.7347 12.9621 11.9747C12.7921 12.2247 12.3221 12.7847 12.1821 12.9447C12.0421 13.1147 11.8921 13.1347 11.6421 13.0047C11.3921 12.8847 10.5921 12.6147 9.65215 11.7747C8.91215 11.1147 8.42215 10.3047 8.27215 10.0547C8.13215 9.80468 8.25215 9.67468 8.38215 9.54468C8.49215 9.43468 8.63215 9.25468 8.75215 9.11468C8.87215 8.97468 8.92215 8.86468 9.00215 8.70468C9.08215 8.53468 9.04215 8.39468 8.98215 8.27468C8.92215 8.15468 8.42215 6.93468 8.22215 6.43468C8.02215 5.95468 7.81215 6.01468 7.66215 6.00468H7.18215C7.01215 6.00468 6.75215 6.06468 6.52215 6.31468C6.30215 6.56468 5.66215 7.16468 5.66215 8.38468C5.66215 9.60468 6.55215 10.7847 6.67215 10.9447C6.79215 11.1147 8.42215 13.6147 10.9021 14.6847C11.4921 14.9447 11.9521 15.0947 12.3121 15.2047C12.9021 15.3947 13.4421 15.3647 13.8721 15.3047C14.3521 15.2347 15.3421 14.7047 15.5421 14.1247C15.7521 13.5447 15.7521 13.0547 15.6821 12.9447C15.6121 12.8347 15.4621 12.7847 15.2121 12.6647Z" fill="black"/>
</svg>
